<svg width="515" height="74" viewBox="0 0 515 74" fill="none" xmlns="http://www.w3.org/2000/svg">
<path d="M22.3991 56.026V73.8984L0.789062 42.2102L22.3991 56.026Z" fill="black"/>
<path d="M44.0099 42.2102L22.3984 73.8984V56.026L44.0099 42.2102Z" fill="black"/>
<path d="M44.0099 37.7453L22.3984 25.4177V51.5626L44.0099 37.7453Z" fill="black"/>
<path d="M44.0099 37.7455L22.3984 0.0834961V25.418L44.0099 37.7455Z" fill="black"/>
<path d="M22.3991 0.0834961V25.418L0.789062 37.7455L22.3991 0.0834961Z" fill="black"/>
<path d="M22.3991 25.4177V51.5626L0.789062 37.7453L22.3991 25.4177Z" fill="black"/>
<path d="M65.9375 19.32C65.9375 17.8954 66.2293 16.6339 66.8129 15.5354C67.3964 14.4369 68.2117 13.5873 69.2587 12.9865C70.3057 12.3858 71.5157 12.0854 72.8888 12.0854C74.2105 12.0854 75.3862 12.3944 76.416 13.0123C77.463 13.6302 78.2783 14.497 78.8619 15.6126C79.4454 16.7283 79.7372 17.9984 79.7372 19.423V20.5043H69.6191C69.6706 21.3625 69.9967 22.0576 70.5975 22.5897C71.1982 23.1218 71.9877 23.3878 72.9661 23.3878C73.6526 23.3878 74.2877 23.2419 74.8713 22.9501C75.4548 22.6412 76.0899 22.1177 76.7764 21.3797L79.0678 23.7225C78.2783 24.5979 77.3686 25.2844 76.3388 25.7822C75.3089 26.2628 74.1847 26.503 72.9661 26.503C71.5758 26.503 70.3486 26.2027 69.2844 25.6019C68.2203 25.0012 67.3964 24.1602 66.8129 23.0789C66.2293 21.9804 65.9375 20.7274 65.9375 19.32ZM76.0298 17.8267C75.9612 17.0715 75.6265 16.4451 75.0257 15.9473C74.4422 15.4496 73.7299 15.2007 72.8888 15.2007C72.0135 15.2007 71.2926 15.441 70.7262 15.9216C70.1598 16.4021 69.8079 17.0372 69.6706 17.8267H76.0298Z" fill="black"/>
<path d="M91.6418 15.7671V21.2509C91.6418 21.7143 91.7448 22.049 91.9507 22.255C92.1739 22.461 92.5343 22.564 93.0321 22.564H96.1473V26.1169H92.6974C91.1869 26.1169 90.0198 25.765 89.1959 25.0613C88.3721 24.3404 87.9601 23.3192 87.9601 21.9975V15.7671H84.6132V12.4716H87.9601V8.99596H91.6418V12.4716H96.9969V15.7671H91.6418Z" fill="black"/>
<path d="M102.388 7.32249H106.069V13.7332H106.121C107.082 12.6347 108.395 12.0854 110.06 12.0854C111.056 12.0854 111.939 12.3257 112.712 12.8063C113.484 13.2869 114.085 13.9649 114.514 14.8402C114.943 15.7156 115.158 16.7283 115.158 17.8782V26.1169H111.476V18.3674C111.476 17.4577 111.244 16.7454 110.781 16.2305C110.317 15.7156 109.682 15.4581 108.876 15.4581C108 15.4581 107.314 15.7156 106.816 16.2305C106.318 16.7283 106.069 17.4234 106.069 18.3159V26.1169H102.388V7.32249Z" fill="black"/>
<path d="M119.647 19.32C119.647 17.8954 119.939 16.6339 120.523 15.5354C121.106 14.4369 121.922 13.5873 122.969 12.9865C124.016 12.3858 125.226 12.0854 126.599 12.0854C127.92 12.0854 129.096 12.3944 130.126 13.0123C131.173 13.6302 131.988 14.497 132.572 15.6126C133.155 16.7283 133.447 17.9984 133.447 19.423V20.5043H123.329C123.381 21.3625 123.707 22.0576 124.307 22.5897C124.908 23.1218 125.698 23.3878 126.676 23.3878C127.363 23.3878 127.998 23.2419 128.581 22.9501C129.165 22.6412 129.8 22.1177 130.486 21.3797L132.778 23.7225C131.988 24.5979 131.079 25.2844 130.049 25.7822C129.019 26.2628 127.895 26.503 126.676 26.503C125.286 26.503 124.059 26.2027 122.994 25.6019C121.93 25.0012 121.106 24.1602 120.523 23.0789C119.939 21.9804 119.647 20.7274 119.647 19.32ZM129.74 17.8267C129.671 17.0715 129.336 16.4451 128.736 15.9473C128.152 15.4496 127.44 15.2007 126.599 15.2007C125.723 15.2007 125.003 15.441 124.436 15.9216C123.87 16.4021 123.518 17.0372 123.381 17.8267H129.74Z" fill="black"/>
<path d="M139.199 12.4716H142.726V13.7332H142.777C143.361 13.1496 143.962 12.7291 144.579 12.4716C145.214 12.2142 145.935 12.0854 146.742 12.0854C147.926 12.0854 148.948 12.4373 149.806 13.141C150.664 13.8276 151.265 14.7716 151.608 15.973L148.158 17.1059C147.763 15.9902 146.948 15.4324 145.712 15.4324C144.785 15.4324 144.082 15.707 143.601 16.2563C143.12 16.7883 142.88 17.5264 142.88 18.4704V26.1169H139.199V12.4716Z" fill="black"/>
<path d="M155.454 19.32C155.454 17.8954 155.746 16.6339 156.33 15.5354C156.913 14.4369 157.728 13.5873 158.775 12.9865C159.822 12.3858 161.032 12.0854 162.406 12.0854C163.727 12.0854 164.903 12.3944 165.933 13.0123C166.98 13.6302 167.795 14.497 168.379 15.6126C168.962 16.7283 169.254 17.9984 169.254 19.423V20.5043H159.136C159.187 21.3625 159.513 22.0576 160.114 22.5897C160.715 23.1218 161.504 23.3878 162.483 23.3878C163.169 23.3878 163.804 23.2419 164.388 22.9501C164.972 22.6412 165.607 22.1177 166.293 21.3797L168.584 23.7225C167.795 24.5979 166.885 25.2844 165.855 25.7822C164.826 26.2628 163.701 26.503 162.483 26.503C161.092 26.503 159.865 26.2027 158.801 25.6019C157.737 25.0012 156.913 24.1602 156.33 23.0789C155.746 21.9804 155.454 20.7274 155.454 19.32ZM165.546 17.8267C165.478 17.0715 165.143 16.4451 164.542 15.9473C163.959 15.4496 163.247 15.2007 162.406 15.2007C161.53 15.2007 160.809 15.441 160.243 15.9216C159.676 16.4021 159.325 17.0372 159.187 17.8267H165.546Z" fill="black"/>
<path d="M174.13 21.4826V12.4716H177.812V20.633C177.812 22.2979 178.635 23.1304 180.283 23.1304C181.021 23.1304 181.605 22.9072 182.034 22.461C182.48 21.9975 182.703 21.3882 182.703 20.633V12.4716H186.385V26.1169H182.858V24.9068H182.806C182.429 25.3874 181.905 25.7736 181.236 26.0654C180.583 26.3572 179.897 26.503 179.176 26.503C177.563 26.503 176.318 26.0654 175.443 25.19C174.568 24.2975 174.13 23.0617 174.13 21.4826Z" fill="black"/>
<path d="M190.875 12.4716H194.119V13.6559H194.17C194.462 13.1925 194.831 12.8407 195.277 12.6004C195.741 12.3429 196.247 12.2142 196.796 12.2142C197.877 12.2142 198.744 12.7205 199.396 13.7332H199.448C200.135 12.7205 201.079 12.2142 202.28 12.2142C203.275 12.2142 204.082 12.566 204.7 13.2697C205.318 13.9735 205.627 14.8917 205.627 16.0245V26.1169H202.229V16.6682C202.229 16.2734 202.126 15.973 201.92 15.7671C201.714 15.5611 201.422 15.4581 201.044 15.4581C200.684 15.4581 200.392 15.5783 200.169 15.8186C199.963 16.0417 199.86 16.3507 199.86 16.7454V26.1169H196.642V16.6682C196.642 16.2906 196.539 15.9988 196.333 15.7928C196.144 15.5697 195.869 15.4581 195.509 15.4581C195.131 15.4581 194.831 15.5783 194.608 15.8186C194.385 16.0417 194.273 16.3507 194.273 16.7454V26.1169H190.875V12.4716Z" fill="black"/>
<path d="M231.187 17.2861H227.582V13.9906H231.187V11.9825C231.187 10.781 231.582 9.83699 232.371 9.15043C233.178 8.44672 234.285 8.09486 235.692 8.09486H239.657V11.3646H236.13C235.77 11.3646 235.495 11.459 235.306 11.6478C235.117 11.8366 235.023 12.1026 235.023 12.4459V13.9906H240.481V17.2861H235.023V26.1169H231.187V17.2861Z" fill="black"/>
<path d="M244.971 19.2942C244.971 17.8868 245.263 16.6424 245.846 15.5611C246.43 14.4626 247.245 13.613 248.292 13.0123C249.356 12.3944 250.566 12.0854 251.922 12.0854C253.295 12.0854 254.505 12.3944 255.552 13.0123C256.616 13.613 257.44 14.4626 258.024 15.5611C258.607 16.6424 258.899 17.8868 258.899 19.2942C258.899 20.7017 258.607 21.9546 258.024 23.0531C257.44 24.1344 256.616 24.9841 255.552 25.6019C254.505 26.2027 253.295 26.503 251.922 26.503C250.566 26.503 249.356 26.2027 248.292 25.6019C247.245 24.9841 246.43 24.1344 245.846 23.0531C245.263 21.9546 244.971 20.7017 244.971 19.2942ZM255.218 19.2942C255.218 18.0928 254.926 17.1574 254.342 16.488C253.776 15.8014 252.969 15.4581 251.922 15.4581C250.892 15.4581 250.086 15.8014 249.502 16.488C248.936 17.1574 248.652 18.0928 248.652 19.2942C248.652 20.4957 248.936 21.4397 249.502 22.1263C250.086 22.7957 250.892 23.1304 251.922 23.1304C252.952 23.1304 253.759 22.7871 254.342 22.1005C254.926 21.414 255.218 20.4786 255.218 19.2942Z" fill="black"/>
<path d="M263.647 21.4826V12.4716H267.328V20.633C267.328 22.2979 268.152 23.1304 269.8 23.1304C270.538 23.1304 271.121 22.9072 271.55 22.461C271.997 21.9975 272.22 21.3882 272.22 20.633V12.4716H275.902V26.1169H272.374V24.9068H272.323C271.945 25.3874 271.422 25.7736 270.752 26.0654C270.1 26.3572 269.414 26.503 268.693 26.503C267.079 26.503 265.835 26.0654 264.96 25.19C264.084 24.2975 263.647 23.0617 263.647 21.4826Z" fill="black"/>
<path d="M281.421 12.4716H285.103V13.7589H285.154C285.704 13.2097 286.296 12.7977 286.931 12.5231C287.566 12.2313 288.287 12.0854 289.093 12.0854C289.986 12.0854 290.818 12.3 291.591 12.7291C292.363 13.141 292.99 13.7847 293.47 14.66C293.951 15.5182 294.191 16.5909 294.191 17.8782V26.1169H290.509V18.3674C290.509 17.492 290.286 16.7883 289.84 16.2563C289.394 15.7242 288.75 15.4581 287.909 15.4581C287.034 15.4581 286.347 15.7156 285.849 16.2305C285.352 16.7283 285.103 17.4234 285.103 18.3159V26.1169H281.421V12.4716Z" fill="black"/>
<path d="M298.398 19.2942C298.398 17.9211 298.664 16.6853 299.196 15.5869C299.728 14.4884 300.474 13.6302 301.436 13.0123C302.397 12.3944 303.487 12.0854 304.705 12.0854C306.25 12.0854 307.46 12.4974 308.335 13.3212H308.387V7.32249H312.069V26.1169H308.67V24.9326H308.619C307.606 25.9796 306.284 26.503 304.654 26.503C303.452 26.503 302.371 26.2027 301.41 25.6019C300.466 25.0012 299.728 24.1602 299.196 23.0789C298.664 21.9804 298.398 20.7188 298.398 19.2942ZM308.387 20.1696V18.3931C308.387 17.8782 308.25 17.3976 307.975 16.9514C307.7 16.5051 307.314 16.1447 306.816 15.8701C306.336 15.5954 305.795 15.4581 305.195 15.4581C304.233 15.4581 303.47 15.81 302.903 16.5137C302.354 17.2003 302.079 18.1271 302.079 19.2942C302.079 20.4442 302.362 21.3711 302.929 22.0748C303.495 22.7785 304.242 23.1304 305.169 23.1304C306.096 23.1304 306.859 22.8472 307.46 22.2808C308.078 21.6972 308.387 20.9935 308.387 20.1696Z" fill="black"/>
<path d="M317.434 22.461C317.434 21.1908 317.863 20.2039 318.721 19.5002C319.596 18.7965 321.047 18.2816 323.072 17.9555C324.136 17.7838 324.857 17.595 325.235 17.3891C325.63 17.1659 325.827 16.8741 325.827 16.5137C325.827 16.1018 325.638 15.7757 325.26 15.5354C324.883 15.2951 324.368 15.1749 323.716 15.1749C322.978 15.1749 322.334 15.3981 321.785 15.8443C321.253 16.2906 320.909 16.8827 320.755 17.6208L317.331 16.8484C317.502 15.9216 317.889 15.0977 318.489 14.3768C319.09 13.6559 319.845 13.0981 320.755 12.7033C321.665 12.2914 322.652 12.0854 323.716 12.0854C325.466 12.0854 326.865 12.5746 327.912 13.553C328.959 14.5313 329.483 15.8357 329.483 17.4663V26.1169H326.187V24.5979H326.136C325.741 25.1986 325.183 25.6706 324.462 26.0139C323.759 26.34 322.961 26.503 322.068 26.503C321.175 26.503 320.377 26.3314 319.674 25.9881C318.97 25.6449 318.421 25.1643 318.026 24.5464C317.631 23.9285 317.434 23.2333 317.434 22.461ZM325.981 21.045V19.5002H325.93C325.775 19.7577 325.518 19.9636 325.158 20.1181C324.797 20.2726 324.231 20.4271 323.458 20.5815C322.497 20.7875 321.836 21.0106 321.476 21.2509C321.115 21.4741 320.935 21.7916 320.935 22.2035C320.935 22.5983 321.09 22.8986 321.399 23.1046C321.725 23.3106 322.188 23.4136 322.789 23.4136C323.338 23.4136 323.862 23.3106 324.359 23.1046C324.857 22.8815 325.252 22.5897 325.544 22.2293C325.835 21.8517 325.981 21.4569 325.981 21.045Z" fill="black"/>
<path d="M342.288 15.7671V21.2509C342.288 21.7143 342.391 22.049 342.597 22.255C342.821 22.461 343.181 22.564 343.679 22.564H346.794V26.1169H343.344C341.834 26.1169 340.666 25.765 339.843 25.0613C339.019 24.3404 338.607 23.3192 338.607 21.9975V15.7671H335.26V12.4716H338.607V8.99596H342.288V12.4716H347.644V15.7671H342.288Z" fill="black"/>
<path d="M366.062 22.7442V26.1169H352.648V22.7442H357.514V15.8443H352.906V12.4716H361.196V22.7442H366.062ZM357.437 6.70459H361.222V10.3347H357.437V6.70459Z" fill="black"/>
<path d="M370.294 19.2942C370.294 17.8868 370.586 16.6424 371.17 15.5611C371.753 14.4626 372.568 13.613 373.615 13.0123C374.68 12.3944 375.89 12.0854 377.246 12.0854C378.619 12.0854 379.829 12.3944 380.876 13.0123C381.94 13.613 382.764 14.4626 383.347 15.5611C383.931 16.6424 384.223 17.8868 384.223 19.2942C384.223 20.7017 383.931 21.9546 383.347 23.0531C382.764 24.1344 381.94 24.9841 380.876 25.6019C379.829 26.2027 378.619 26.503 377.246 26.503C375.89 26.503 374.68 26.2027 373.615 25.6019C372.568 24.9841 371.753 24.1344 371.17 23.0531C370.586 21.9546 370.294 20.7017 370.294 19.2942ZM380.541 19.2942C380.541 18.0928 380.249 17.1574 379.666 16.488C379.099 15.8014 378.293 15.4581 377.246 15.4581C376.216 15.4581 375.409 15.8014 374.825 16.488C374.259 17.1574 373.976 18.0928 373.976 19.2942C373.976 20.4957 374.259 21.4397 374.825 22.1263C375.409 22.7957 376.216 23.1304 377.246 23.1304C378.275 23.1304 379.082 22.7871 379.666 22.1005C380.249 21.414 380.541 20.4786 380.541 19.2942Z" fill="black"/>
<path d="M388.841 12.4716H392.523V13.7589H392.574C393.124 13.2097 393.716 12.7977 394.351 12.5231C394.986 12.2313 395.707 12.0854 396.513 12.0854C397.406 12.0854 398.238 12.3 399.011 12.7291C399.783 13.141 400.41 13.7847 400.89 14.66C401.371 15.5182 401.611 16.5909 401.611 17.8782V26.1169H397.929V18.3674C397.929 17.492 397.706 16.7883 397.26 16.2563C396.814 15.7242 396.17 15.4581 395.329 15.4581C394.454 15.4581 393.767 15.7156 393.269 16.2305C392.772 16.7283 392.523 17.4234 392.523 18.3159V26.1169H388.841V12.4716Z" fill="black"/>
<path d="M66.1016 54.0946L71.0454 53.0646C71.343 54.8728 71.8923 56.1431 72.6934 56.8755C73.5174 57.6079 74.7648 57.9741 76.4357 57.9741C77.6487 57.9741 78.5757 57.7796 79.2166 57.3905C79.8804 56.9785 80.2122 56.3834 80.2122 55.6052C80.2122 54.7812 79.8346 54.0831 79.0793 53.5109C78.3468 52.9387 77.0079 52.3436 75.0624 51.7256C72.2471 50.8559 70.2215 49.8488 68.9855 48.7044C67.7724 47.5599 67.1659 46.0837 67.1659 44.2755C67.1659 42.9479 67.5092 41.7806 68.1958 40.7736C68.9054 39.7436 69.8896 38.9425 71.1484 38.3703C72.4302 37.7981 73.8836 37.512 75.5087 37.512C77.912 37.512 79.9032 38.1414 81.4825 39.4003C83.0847 40.6362 84.149 42.3528 84.6755 44.5501L79.7316 45.6488C79.3883 44.4128 78.8733 43.5202 78.1866 42.9708C77.5229 42.3986 76.6302 42.1125 75.5087 42.1125C74.5016 42.1125 73.7005 42.3185 73.1054 42.7305C72.5103 43.1425 72.2128 43.6689 72.2128 44.3098C72.2128 44.882 72.5217 45.3856 73.1397 45.8204C73.7577 46.2553 74.925 46.7474 76.6416 47.2967C79.7545 48.3038 81.9746 49.4482 83.3022 50.73C84.6526 51.9888 85.3278 53.6254 85.3278 55.6395C85.3278 57.0357 84.9616 58.2603 84.2291 59.3131C83.4967 60.366 82.4553 61.1785 81.1049 61.7507C79.7545 62.3 78.1752 62.5747 76.367 62.5747C73.4602 62.5747 71.137 61.8423 69.3975 60.3774C67.658 58.9126 66.5593 56.8183 66.1016 54.0946Z" fill="black"/>
<path d="M100.688 48.258V55.5709C100.688 56.1889 100.825 56.6352 101.1 56.9098C101.397 57.1845 101.878 57.3218 102.542 57.3218H106.696V62.0597H102.095C100.081 62.0597 98.5249 61.5905 97.4262 60.6521C96.3276 59.6908 95.7783 58.3289 95.7783 56.5665V48.258H91.315V43.8635H95.7783V39.2286H100.688V43.8635H107.829V48.258H100.688Z" fill="black"/>
<path d="M115.293 57.1845C115.293 55.4908 115.865 54.1747 117.009 53.2363C118.176 52.2978 120.111 51.6112 122.811 51.1763C124.23 50.9474 125.192 50.6957 125.695 50.421C126.222 50.1234 126.485 49.7343 126.485 49.2537C126.485 48.7044 126.233 48.2695 125.73 47.9491C125.226 47.6286 124.539 47.4684 123.67 47.4684C122.686 47.4684 121.827 47.7659 121.095 48.361C120.385 48.9561 119.927 49.7458 119.721 50.73L115.155 49.7C115.384 48.464 115.899 47.3654 116.7 46.4041C117.501 45.4428 118.508 44.6989 119.721 44.1725C120.935 43.6232 122.251 43.3485 123.67 43.3485C126.004 43.3485 127.87 44.0008 129.266 45.3054C130.662 46.6101 131.36 48.3496 131.36 50.524V62.0597H126.966V60.0341H126.897C126.371 60.8352 125.627 61.4646 124.665 61.9224C123.727 62.3573 122.663 62.5747 121.472 62.5747C120.282 62.5747 119.218 62.3458 118.279 61.8881C117.341 61.4303 116.609 60.7894 116.082 59.9654C115.556 59.1415 115.293 58.2145 115.293 57.1845ZM126.691 55.2962V53.2363H126.622C126.416 53.5796 126.073 53.8542 125.592 54.0602C125.112 54.2662 124.356 54.4722 123.326 54.6782C122.045 54.9529 121.163 55.2504 120.683 55.5709C120.202 55.8684 119.962 56.2919 119.962 56.8412C119.962 57.3676 120.168 57.7682 120.58 58.0428C121.015 58.3175 121.633 58.4548 122.434 58.4548C123.166 58.4548 123.864 58.3175 124.528 58.0428C125.192 57.7453 125.718 57.3562 126.107 56.8755C126.496 56.372 126.691 55.8455 126.691 55.2962Z" fill="black"/>
<path d="M148.437 48.258V55.5709C148.437 56.1889 148.574 56.6352 148.849 56.9098C149.146 57.1845 149.627 57.3218 150.291 57.3218H154.445V62.0597H149.844C147.83 62.0597 146.274 61.5905 145.175 60.6521C144.077 59.6908 143.527 58.3289 143.527 56.5665V48.258H139.064V43.8635H143.527V39.2286H148.437V43.8635H155.578V48.258H148.437Z" fill="black"/>
<path d="M161.909 52.9959C161.909 51.0962 162.298 49.4139 163.076 47.9491C163.854 46.4842 164.941 45.3512 166.338 44.5501C167.734 43.749 169.347 43.3485 171.178 43.3485C172.941 43.3485 174.509 43.7605 175.882 44.5845C177.278 45.4084 178.365 46.5643 179.144 48.052C179.922 49.5398 180.311 51.2335 180.311 53.1333V54.5752H166.818C166.887 55.7196 167.322 56.6466 168.123 57.3562C168.924 58.0657 169.977 58.4205 171.281 58.4205C172.197 58.4205 173.044 58.2259 173.822 57.8368C174.6 57.4248 175.447 56.7267 176.363 55.7425L179.418 58.8668C178.365 60.0341 177.152 60.9496 175.779 61.6134C174.406 62.2543 172.906 62.5747 171.281 62.5747C169.427 62.5747 167.791 62.1742 166.372 61.3731C164.953 60.572 163.854 59.4504 163.076 58.0085C162.298 56.5436 161.909 54.8728 161.909 52.9959ZM175.367 51.0046C175.275 49.9976 174.829 49.1621 174.028 48.4984C173.25 47.8346 172.3 47.5027 171.178 47.5027C170.011 47.5027 169.05 47.8232 168.294 48.464C167.539 49.1049 167.07 49.9518 166.887 51.0046H175.367Z" fill="black"/>
<path d="M204.014 57.5622V62.0597H186.126V57.5622H192.615V42.5245H186.47V38.027H197.525V57.5622H204.014Z" fill="black"/>
<path d="M209.658 52.9959C209.658 51.0962 210.047 49.4139 210.825 47.9491C211.603 46.4842 212.69 45.3512 214.087 44.5501C215.483 43.749 217.096 43.3485 218.927 43.3485C220.69 43.3485 222.258 43.7605 223.631 44.5845C225.027 45.4084 226.114 46.5643 226.893 48.052C227.671 49.5398 228.06 51.2335 228.06 53.1333V54.5752H214.567C214.636 55.7196 215.071 56.6466 215.872 57.3562C216.673 58.0657 217.726 58.4205 219.03 58.4205C219.946 58.4205 220.793 58.2259 221.571 57.8368C222.349 57.4248 223.196 56.7267 224.112 55.7425L227.167 58.8668C226.114 60.0341 224.901 60.9496 223.528 61.6134C222.155 62.2543 220.656 62.5747 219.03 62.5747C217.176 62.5747 215.54 62.1742 214.121 61.3731C212.702 60.572 211.603 59.4504 210.825 58.0085C210.047 56.5436 209.658 54.8728 209.658 52.9959ZM223.116 51.0046C223.024 49.9976 222.578 49.1621 221.777 48.4984C220.999 47.8346 220.049 47.5027 218.927 47.5027C217.76 47.5027 216.799 47.8232 216.044 48.464C215.288 49.1049 214.819 49.9518 214.636 51.0046H223.116Z" fill="black"/>
<path d="M234.013 56.0515L238.476 55.0216C238.797 56.166 239.369 57.0472 240.193 57.6652C241.04 58.2603 242.104 58.5578 243.386 58.5578C244.53 58.5578 245.4 58.4205 245.995 58.1458C246.613 57.8712 246.922 57.482 246.922 56.9785C246.922 56.4063 246.613 55.9714 245.995 55.6739C245.377 55.3534 244.244 55.033 242.596 54.7126C239.895 54.209 237.961 53.5109 236.794 52.6183C235.649 51.7256 235.077 50.5011 235.077 48.9447C235.077 47.8461 235.398 46.8733 236.038 46.0264C236.679 45.1796 237.572 44.5272 238.716 44.0695C239.884 43.5888 241.211 43.3485 242.699 43.3485C244.736 43.3485 246.544 43.852 248.124 44.8591C249.703 45.8662 250.767 47.2052 251.316 48.876L247.094 50.2493C246.75 49.3338 246.189 48.6243 245.411 48.1207C244.656 47.6172 243.74 47.3654 242.665 47.3654C241.772 47.3654 241.062 47.5142 240.536 47.8117C240.01 48.0864 239.746 48.4755 239.746 48.979C239.746 49.4368 240.032 49.8145 240.605 50.112C241.2 50.3867 242.264 50.6613 243.798 50.936C246.59 51.4624 248.581 52.1948 249.771 53.1333C250.985 54.0488 251.591 55.3305 251.591 56.9785C251.591 58.1 251.248 59.0842 250.561 59.9311C249.897 60.778 248.936 61.4303 247.677 61.8881C246.441 62.3458 245.011 62.5747 243.386 62.5747C240.914 62.5747 238.854 62.0025 237.206 60.8581C235.581 59.7137 234.516 58.1115 234.013 56.0515Z" fill="black"/>
<path d="M257.887 56.0515L262.351 55.0216C262.671 56.166 263.243 57.0472 264.067 57.6652C264.914 58.2603 265.978 58.5578 267.26 58.5578C268.405 58.5578 269.274 58.4205 269.869 58.1458C270.487 57.8712 270.796 57.482 270.796 56.9785C270.796 56.4063 270.487 55.9714 269.869 55.6739C269.251 55.3534 268.118 55.033 266.47 54.7126C263.77 54.209 261.836 53.5109 260.668 52.6183C259.524 51.7256 258.952 50.5011 258.952 48.9447C258.952 47.8461 259.272 46.8733 259.913 46.0264C260.554 45.1796 261.446 44.5272 262.591 44.0695C263.758 43.5888 265.086 43.3485 266.573 43.3485C268.611 43.3485 270.419 43.852 271.998 44.8591C273.577 45.8662 274.642 47.2052 275.191 48.876L270.968 50.2493C270.625 49.3338 270.064 48.6243 269.286 48.1207C268.53 47.6172 267.615 47.3654 266.539 47.3654C265.647 47.3654 264.937 47.5142 264.411 47.8117C263.884 48.0864 263.621 48.4755 263.621 48.979C263.621 49.4368 263.907 49.8145 264.479 50.112C265.074 50.3867 266.139 50.6613 267.672 50.936C270.464 51.4624 272.456 52.1948 273.646 53.1333C274.859 54.0488 275.466 55.3305 275.466 56.9785C275.466 58.1 275.122 59.0842 274.436 59.9311C273.772 60.778 272.811 61.4303 271.552 61.8881C270.316 62.3458 268.885 62.5747 267.26 62.5747C264.788 62.5747 262.728 62.0025 261.08 60.8581C259.455 59.7137 258.391 58.1115 257.887 56.0515Z" fill="black"/>
<path d="M304.641 50.0433C304.641 47.5485 305.064 45.3512 305.911 43.4515C306.781 41.5518 307.994 40.0869 309.55 39.0569C311.13 38.027 312.949 37.512 315.009 37.512C316.634 37.512 318.122 37.8782 319.472 38.6106C320.823 39.3201 321.921 40.3272 322.768 41.6319C323.638 42.9365 324.165 44.4242 324.348 46.0951L319.369 46.9191C319.118 45.4084 318.603 44.2411 317.824 43.4172C317.069 42.5932 316.131 42.1812 315.009 42.1812C313.384 42.1812 312.091 42.8793 311.13 44.2755C310.191 45.6717 309.722 47.5943 309.722 50.0433C309.722 52.4924 310.191 54.415 311.13 55.8112C312.091 57.2074 313.384 57.9055 315.009 57.9055C316.176 57.9055 317.149 57.4706 317.927 56.6008C318.706 55.7311 319.209 54.4722 319.438 52.8243L324.416 53.6483C324.21 55.4335 323.684 57.0014 322.837 58.3518C321.99 59.7022 320.88 60.7436 319.507 61.4761C318.156 62.2085 316.657 62.5747 315.009 62.5747C312.949 62.5747 311.13 62.0597 309.55 61.0297C307.994 59.9998 306.781 58.5349 305.911 56.6352C305.064 54.7354 304.641 52.5382 304.641 50.0433Z" fill="black"/>
<path d="M329.03 52.9616C329.03 51.0848 329.419 49.4254 330.198 47.9834C330.976 46.5185 332.063 45.3856 333.459 44.5845C334.878 43.7605 336.492 43.3485 338.3 43.3485C340.131 43.3485 341.745 43.7605 343.141 44.5845C344.56 45.3856 345.659 46.5185 346.437 47.9834C347.215 49.4254 347.604 51.0848 347.604 52.9616C347.604 54.8384 347.215 56.5093 346.437 57.9741C345.659 59.4161 344.56 60.5491 343.141 61.3731C341.745 62.1742 340.131 62.5747 338.3 62.5747C336.492 62.5747 334.878 62.1742 333.459 61.3731C332.063 60.5491 330.976 59.4161 330.198 57.9741C329.419 56.5093 329.03 54.8384 329.03 52.9616ZM342.695 52.9616C342.695 51.3594 342.305 50.112 341.527 49.2194C340.772 48.3038 339.696 47.8461 338.3 47.8461C336.927 47.8461 335.851 48.3038 335.073 49.2194C334.317 50.112 333.94 51.3594 333.94 52.9616C333.94 54.5638 334.317 55.8226 335.073 56.7382C335.851 57.6308 336.927 58.0771 338.3 58.0771C339.673 58.0771 340.749 57.6194 341.527 56.7038C342.305 55.7883 342.695 54.5409 342.695 52.9616Z" fill="black"/>
<path d="M353.763 43.8635H358.673V45.5801H358.741C359.474 44.8477 360.263 44.2984 361.11 43.9321C361.957 43.543 362.918 43.3485 363.994 43.3485C365.184 43.3485 366.294 43.6346 367.324 44.2068C368.354 44.7561 369.19 45.6144 369.831 46.7817C370.472 47.9262 370.792 49.3567 370.792 51.0733V62.0597H365.882V51.7256C365.882 50.5583 365.585 49.6199 364.99 48.9104C364.395 48.2008 363.536 47.8461 362.415 47.8461C361.248 47.8461 360.332 48.1894 359.668 48.876C359.005 49.5398 358.673 50.4668 358.673 51.657V62.0597H353.763V43.8635Z" fill="black"/>
<path d="M377.26 56.0515L381.723 55.0216C382.044 56.166 382.616 57.0472 383.44 57.6652C384.287 58.2603 385.351 58.5578 386.633 58.5578C387.777 58.5578 388.647 58.4205 389.242 58.1458C389.86 57.8712 390.169 57.482 390.169 56.9785C390.169 56.4063 389.86 55.9714 389.242 55.6739C388.624 55.3534 387.491 55.033 385.843 54.7126C383.142 54.209 381.208 53.5109 380.041 52.6183C378.896 51.7256 378.324 50.5011 378.324 48.9447C378.324 47.8461 378.645 46.8733 379.286 46.0264C379.926 45.1796 380.819 44.5272 381.963 44.0695C383.131 43.5888 384.458 43.3485 385.946 43.3485C387.983 43.3485 389.791 43.852 391.371 44.8591C392.95 45.8662 394.014 47.2052 394.564 48.876L390.341 50.2493C389.997 49.3338 389.437 48.6243 388.658 48.1207C387.903 47.6172 386.987 47.3654 385.912 47.3654C385.019 47.3654 384.31 47.5142 383.783 47.8117C383.257 48.0864 382.993 48.4755 382.993 48.979C382.993 49.4368 383.28 49.8145 383.852 50.112C384.447 50.3867 385.511 50.6613 387.045 50.936C389.837 51.4624 391.828 52.1948 393.019 53.1333C394.232 54.0488 394.838 55.3305 394.838 56.9785C394.838 58.1 394.495 59.0842 393.808 59.9311C393.144 60.778 392.183 61.4303 390.924 61.8881C389.688 62.3458 388.258 62.5747 386.633 62.5747C384.161 62.5747 382.101 62.0025 380.453 60.8581C378.828 59.7137 377.763 58.1115 377.26 56.0515Z" fill="black"/>
<path d="M400.654 52.9959C400.654 51.0962 401.043 49.4139 401.821 47.9491C402.599 46.4842 403.687 45.3512 405.083 44.5501C406.479 43.749 408.093 43.3485 409.924 43.3485C411.686 43.3485 413.254 43.7605 414.627 44.5845C416.023 45.4084 417.111 46.5643 417.889 48.052C418.667 49.5398 419.056 51.2335 419.056 53.1333V54.5752H405.563C405.632 55.7196 406.067 56.6466 406.868 57.3562C407.669 58.0657 408.722 58.4205 410.027 58.4205C410.942 58.4205 411.789 58.2259 412.567 57.8368C413.345 57.4248 414.192 56.7267 415.108 55.7425L418.163 58.8668C417.111 60.0341 415.897 60.9496 414.524 61.6134C413.151 62.2543 411.652 62.5747 410.027 62.5747C408.173 62.5747 406.536 62.1742 405.117 61.3731C403.698 60.572 402.599 59.4504 401.821 58.0085C401.043 56.5436 400.654 54.8728 400.654 52.9959ZM414.112 51.0046C414.021 49.9976 413.574 49.1621 412.773 48.4984C411.995 47.8346 411.045 47.5027 409.924 47.5027C408.756 47.5027 407.795 47.8232 407.04 48.464C406.284 49.1049 405.815 49.9518 405.632 51.0046H414.112Z" fill="black"/>
<path d="M425.387 43.8635H430.296V45.5801H430.365C431.097 44.8477 431.887 44.2984 432.734 43.9321C433.581 43.543 434.542 43.3485 435.618 43.3485C436.808 43.3485 437.918 43.6346 438.948 44.2068C439.978 44.7561 440.813 45.6144 441.454 46.7817C442.095 47.9262 442.416 49.3567 442.416 51.0733V62.0597H437.506V51.7256C437.506 50.5583 437.208 49.6199 436.613 48.9104C436.018 48.2008 435.16 47.8461 434.038 47.8461C432.871 47.8461 431.956 48.1894 431.292 48.876C430.628 49.5398 430.296 50.4668 430.296 51.657V62.0597H425.387V43.8635Z" fill="black"/>
<path d="M448.883 56.0515L453.347 55.0216C453.667 56.166 454.239 57.0472 455.063 57.6652C455.91 58.2603 456.975 58.5578 458.256 58.5578C459.401 58.5578 460.27 58.4205 460.866 58.1458C461.484 57.8712 461.793 57.482 461.793 56.9785C461.793 56.4063 461.484 55.9714 460.866 55.6739C460.248 55.3534 459.115 55.033 457.467 54.7126C454.766 54.209 452.832 53.5109 451.664 52.6183C450.52 51.7256 449.948 50.5011 449.948 48.9447C449.948 47.8461 450.268 46.8733 450.909 46.0264C451.55 45.1796 452.443 44.5272 453.587 44.0695C454.754 43.5888 456.082 43.3485 457.57 43.3485C459.607 43.3485 461.415 43.852 462.994 44.8591C464.573 45.8662 465.638 47.2052 466.187 48.876L461.964 50.2493C461.621 49.3338 461.06 48.6243 460.282 48.1207C459.527 47.6172 458.611 47.3654 457.535 47.3654C456.643 47.3654 455.933 47.5142 455.407 47.8117C454.88 48.0864 454.617 48.4755 454.617 48.979C454.617 49.4368 454.903 49.8145 455.475 50.112C456.07 50.3867 457.135 50.6613 458.668 50.936C461.461 51.4624 463.452 52.1948 464.642 53.1333C465.855 54.0488 466.462 55.3305 466.462 56.9785C466.462 58.1 466.118 59.0842 465.432 59.9311C464.768 60.778 463.807 61.4303 462.548 61.8881C461.312 62.3458 459.881 62.5747 458.256 62.5747C455.784 62.5747 453.724 62.0025 452.076 60.8581C450.451 59.7137 449.387 58.1115 448.883 56.0515Z" fill="black"/>
<path d="M473.307 55.8799V43.8635H478.217V54.7469C478.217 56.9671 479.316 58.0771 481.513 58.0771C482.497 58.0771 483.275 57.7796 483.847 57.1845C484.443 56.5665 484.74 55.754 484.74 54.7469V43.8635H489.65V62.0597H484.946V60.4461H484.877C484.374 61.087 483.676 61.602 482.783 61.9911C481.913 62.3802 480.998 62.5747 480.036 62.5747C477.885 62.5747 476.226 61.9911 475.058 60.8237C473.891 59.6336 473.307 57.9856 473.307 55.8799Z" fill="black"/>
<path d="M496.633 56.0515L501.096 55.0216C501.416 56.166 501.988 57.0472 502.812 57.6652C503.659 58.2603 504.724 58.5578 506.005 58.5578C507.15 58.5578 508.019 58.4205 508.615 58.1458C509.233 57.8712 509.542 57.482 509.542 56.9785C509.542 56.4063 509.233 55.9714 508.615 55.6739C507.997 55.3534 506.864 55.033 505.216 54.7126C502.515 54.209 500.581 53.5109 499.413 52.6183C498.269 51.7256 497.697 50.5011 497.697 48.9447C497.697 47.8461 498.017 46.8733 498.658 46.0264C499.299 45.1796 500.192 44.5272 501.336 44.0695C502.503 43.5888 503.831 43.3485 505.319 43.3485C507.356 43.3485 509.164 43.852 510.743 44.8591C512.322 45.8662 513.387 47.2052 513.936 48.876L509.713 50.2493C509.37 49.3338 508.809 48.6243 508.031 48.1207C507.276 47.6172 506.36 47.3654 505.284 47.3654C504.392 47.3654 503.682 47.5142 503.156 47.8117C502.629 48.0864 502.366 48.4755 502.366 48.979C502.366 49.4368 502.652 49.8145 503.224 50.112C503.819 50.3867 504.884 50.6613 506.417 50.936C509.21 51.4624 511.201 52.1948 512.391 53.1333C513.604 54.0488 514.211 55.3305 514.211 56.9785C514.211 58.1 513.867 59.0842 513.181 59.9311C512.517 60.778 511.556 61.4303 510.297 61.8881C509.061 62.3458 507.63 62.5747 506.005 62.5747C503.533 62.5747 501.473 62.0025 499.825 60.8581C498.2 59.7137 497.136 58.1115 496.633 56.0515Z" fill="black"/>
</svg>
