<svg width="515" height="75" viewBox="0 0 515 75" fill="none" xmlns="http://www.w3.org/2000/svg">
<path d="M22.4069 56.4403V74.3127L0.796875 42.6245L22.4069 56.4403Z" fill="#0DAFD2"/>
<path d="M44.0178 42.6245L22.4062 74.3127V56.4403L44.0178 42.6245Z" fill="#667BBC"/>
<path d="M44.0178 38.1596L22.4062 25.832V51.9769L44.0178 38.1596Z" fill="#9E69AC"/>
<path d="M44.0178 38.1598L22.4062 0.497803V25.8323L44.0178 38.1598Z" fill="#F58B77"/>
<path d="M22.4069 0.497803V25.8323L0.796875 38.1598L22.4069 0.497803Z" fill="#F9EC7B"/>
<path d="M22.4069 25.832V51.9769L0.796875 38.1596L22.4069 25.832Z" fill="#54BC7A"/>
<path d="M65.9473 19.7343C65.9473 18.3097 66.2391 17.0482 66.8226 15.9497C67.4062 14.8512 68.2215 14.0016 69.2685 13.4009C70.3155 12.8001 71.5255 12.4998 72.8986 12.4998C74.2202 12.4998 75.3959 12.8087 76.4258 13.4266C77.4728 14.0445 78.288 14.9113 78.8716 16.0269C79.4552 17.1426 79.747 18.4127 79.747 19.8373V20.9186H69.6289C69.6804 21.7768 70.0065 22.4719 70.6072 23.004C71.208 23.5361 71.9975 23.8021 72.9758 23.8021C73.6624 23.8021 74.2975 23.6562 74.881 23.3644C75.4646 23.0555 76.0997 22.532 76.7862 21.794L79.0776 24.1368C78.288 25.0122 77.3784 25.6987 76.3485 26.1965C75.3187 26.6771 74.1945 26.9174 72.9758 26.9174C71.5856 26.9174 70.3584 26.617 69.2942 26.0163C68.2301 25.4155 67.4062 24.5745 66.8226 23.4932C66.2391 22.3947 65.9473 21.1417 65.9473 19.7343ZM76.0396 18.241C75.9709 17.4858 75.6362 16.8594 75.0355 16.3616C74.4519 15.8639 73.7396 15.615 72.8986 15.615C72.0233 15.615 71.3024 15.8553 70.736 16.3359C70.1696 16.8165 69.8177 17.4515 69.6804 18.241H76.0396Z" fill="#989898"/>
<path d="M91.6516 16.1814V21.6652C91.6516 22.1287 91.7545 22.4633 91.9605 22.6693C92.1836 22.8753 92.5441 22.9783 93.0418 22.9783H96.1571V26.5312H92.7071C91.1967 26.5312 90.0296 26.1793 89.2057 25.4756C88.3818 24.7547 87.9699 23.7335 87.9699 22.4119V16.1814H84.623V12.8859H87.9699V9.41027H91.6516V12.8859H97.0067V16.1814H91.6516Z" fill="#989898"/>
<path d="M102.398 7.73679H106.079V14.1475H106.131C107.092 13.049 108.405 12.4998 110.07 12.4998C111.065 12.4998 111.949 12.74 112.722 13.2206C113.494 13.7012 114.095 14.3792 114.524 15.2545C114.953 16.1299 115.167 17.1426 115.167 18.2925V26.5312H111.486V18.7817C111.486 17.872 111.254 17.1597 110.791 16.6448C110.327 16.1299 109.692 15.8724 108.885 15.8724C108.01 15.8724 107.324 16.1299 106.826 16.6448C106.328 17.1426 106.079 17.8377 106.079 18.7302V26.5312H102.398V7.73679Z" fill="#989898"/>
<path d="M119.657 19.7343C119.657 18.3097 119.949 17.0482 120.533 15.9497C121.116 14.8512 121.931 14.0016 122.978 13.4009C124.025 12.8001 125.236 12.4998 126.609 12.4998C127.93 12.4998 129.106 12.8087 130.136 13.4266C131.183 14.0445 131.998 14.9113 132.582 16.0269C133.165 17.1426 133.457 18.4127 133.457 19.8373V20.9186H123.339C123.39 21.7768 123.717 22.4719 124.317 23.004C124.918 23.5361 125.708 23.8021 126.686 23.8021C127.372 23.8021 128.007 23.6562 128.591 23.3644C129.175 23.0555 129.81 22.532 130.496 21.794L132.788 24.1368C131.998 25.0122 131.088 25.6987 130.059 26.1965C129.029 26.6771 127.904 26.9174 126.686 26.9174C125.296 26.9174 124.068 26.617 123.004 26.0163C121.94 25.4155 121.116 24.5745 120.533 23.4932C119.949 22.3947 119.657 21.1417 119.657 19.7343ZM129.75 18.241C129.681 17.4858 129.346 16.8594 128.746 16.3616C128.162 15.8639 127.45 15.615 126.609 15.615C125.733 15.615 125.012 15.8553 124.446 16.3359C123.88 16.8165 123.528 17.4515 123.39 18.241H129.75Z" fill="#989898"/>
<path d="M139.208 12.8859H142.735V14.1475H142.787C143.371 13.5639 143.971 13.1434 144.589 12.8859C145.224 12.6285 145.945 12.4998 146.752 12.4998C147.936 12.4998 148.957 12.8516 149.816 13.5553C150.674 14.2419 151.274 15.1859 151.618 16.3874L148.168 17.5202C147.773 16.4045 146.958 15.8467 145.722 15.8467C144.795 15.8467 144.091 16.1213 143.611 16.6706C143.13 17.2026 142.89 17.9407 142.89 18.8847V26.5312H139.208V12.8859Z" fill="#989898"/>
<path d="M155.464 19.7343C155.464 18.3097 155.756 17.0482 156.339 15.9497C156.923 14.8512 157.738 14.0016 158.785 13.4009C159.832 12.8001 161.042 12.4998 162.415 12.4998C163.737 12.4998 164.913 12.8087 165.942 13.4266C166.989 14.0445 167.805 14.9113 168.388 16.0269C168.972 17.1426 169.264 18.4127 169.264 19.8373V20.9186H159.146C159.197 21.7768 159.523 22.4719 160.124 23.004C160.725 23.5361 161.514 23.8021 162.493 23.8021C163.179 23.8021 163.814 23.6562 164.398 23.3644C164.981 23.0555 165.616 22.532 166.303 21.794L168.594 24.1368C167.805 25.0122 166.895 25.6987 165.865 26.1965C164.835 26.6771 163.711 26.9174 162.493 26.9174C161.102 26.9174 159.875 26.617 158.811 26.0163C157.747 25.4155 156.923 24.5745 156.339 23.4932C155.756 22.3947 155.464 21.1417 155.464 19.7343ZM165.556 18.241C165.488 17.4858 165.153 16.8594 164.552 16.3616C163.969 15.8639 163.256 15.615 162.415 15.615C161.54 15.615 160.819 15.8553 160.253 16.3359C159.686 16.8165 159.334 17.4515 159.197 18.241H165.556Z" fill="#989898"/>
<path d="M174.14 21.8969V12.8859H177.821V21.0473C177.821 22.7122 178.645 23.5447 180.293 23.5447C181.031 23.5447 181.614 23.3215 182.044 22.8753C182.49 22.4119 182.713 21.8025 182.713 21.0473V12.8859H186.395V26.5312H182.867V25.3211H182.816C182.438 25.8017 181.915 26.1879 181.245 26.4797C180.593 26.7715 179.907 26.9174 179.186 26.9174C177.572 26.9174 176.328 26.4797 175.453 25.6043C174.577 24.7118 174.14 23.476 174.14 21.8969Z" fill="#989898"/>
<path d="M190.884 12.8859H194.128V14.0702H194.18C194.472 13.6068 194.841 13.255 195.287 13.0147C195.75 12.7572 196.257 12.6285 196.806 12.6285C197.887 12.6285 198.754 13.1348 199.406 14.1475H199.458C200.144 13.1348 201.088 12.6285 202.29 12.6285C203.285 12.6285 204.092 12.9803 204.71 13.6841C205.328 14.3878 205.637 15.306 205.637 16.4388V26.5312H202.238V17.0825C202.238 16.6877 202.135 16.3874 201.929 16.1814C201.723 15.9754 201.432 15.8724 201.054 15.8724C200.694 15.8724 200.402 15.9926 200.179 16.2329C199.973 16.456 199.87 16.765 199.87 17.1597V26.5312H196.651V17.0825C196.651 16.7049 196.548 16.4131 196.343 16.2071C196.154 15.984 195.879 15.8724 195.519 15.8724C195.141 15.8724 194.841 15.9926 194.618 16.2329C194.394 16.456 194.283 16.765 194.283 17.1597V26.5312H190.884V12.8859Z" fill="#989898"/>
<path d="M231.197 17.7004H227.592V14.4049H231.197V12.3968C231.197 11.1953 231.591 10.2513 232.381 9.56474C233.188 8.86102 234.295 8.50916 235.702 8.50916H239.667V11.7789H236.14C235.779 11.7789 235.505 11.8733 235.316 12.0621C235.127 12.2509 235.033 12.5169 235.033 12.8602V14.4049H240.491V17.7004H235.033V26.5312H231.197V17.7004Z" fill="#989898"/>
<path d="M244.981 19.7086C244.981 18.3011 245.272 17.0567 245.856 15.9754C246.44 14.8769 247.255 14.0273 248.302 13.4266C249.366 12.8087 250.576 12.4998 251.932 12.4998C253.305 12.4998 254.515 12.8087 255.562 13.4266C256.626 14.0273 257.45 14.8769 258.034 15.9754C258.617 17.0567 258.909 18.3011 258.909 19.7086C258.909 21.116 258.617 22.3689 258.034 23.4674C257.45 24.5488 256.626 25.3984 255.562 26.0163C254.515 26.617 253.305 26.9174 251.932 26.9174C250.576 26.9174 249.366 26.617 248.302 26.0163C247.255 25.3984 246.44 24.5488 245.856 23.4674C245.272 22.3689 244.981 21.116 244.981 19.7086ZM255.227 19.7086C255.227 18.5071 254.936 17.5717 254.352 16.9023C253.786 16.2157 252.979 15.8724 251.932 15.8724C250.902 15.8724 250.095 16.2157 249.512 16.9023C248.945 17.5717 248.662 18.5071 248.662 19.7086C248.662 20.91 248.945 21.854 249.512 22.5406C250.095 23.21 250.902 23.5447 251.932 23.5447C252.962 23.5447 253.768 23.2014 254.352 22.5148C254.936 21.8283 255.227 20.8929 255.227 19.7086Z" fill="#989898"/>
<path d="M263.656 21.8969V12.8859H267.338V21.0473C267.338 22.7122 268.162 23.5447 269.81 23.5447C270.548 23.5447 271.131 23.3215 271.56 22.8753C272.007 22.4119 272.23 21.8025 272.23 21.0473V12.8859H275.911V26.5312H272.384V25.3211H272.333C271.955 25.8017 271.432 26.1879 270.762 26.4797C270.11 26.7715 269.423 26.9174 268.702 26.9174C267.089 26.9174 265.845 26.4797 264.969 25.6043C264.094 24.7118 263.656 23.476 263.656 21.8969Z" fill="#989898"/>
<path d="M281.431 12.8859H285.113V14.1732H285.164C285.713 13.624 286.305 13.2121 286.94 12.9374C287.576 12.6456 288.296 12.4998 289.103 12.4998C289.996 12.4998 290.828 12.7143 291.6 13.1434C292.373 13.5553 292.999 14.199 293.48 15.0743C293.96 15.9325 294.201 17.0053 294.201 18.2925V26.5312H290.519V18.7817C290.519 17.9064 290.296 17.2026 289.85 16.6706C289.404 16.1385 288.76 15.8724 287.919 15.8724C287.043 15.8724 286.357 16.1299 285.859 16.6448C285.361 17.1426 285.113 17.8377 285.113 18.7302V26.5312H281.431V12.8859Z" fill="#989898"/>
<path d="M298.407 19.7086C298.407 18.3354 298.673 17.0997 299.206 16.0012C299.738 14.9027 300.484 14.0445 301.445 13.4266C302.407 12.8087 303.496 12.4998 304.715 12.4998C306.26 12.4998 307.47 12.9117 308.345 13.7355H308.397V7.73679H312.078V26.5312H308.68V25.3469H308.628C307.616 26.3939 306.294 26.9174 304.664 26.9174C303.462 26.9174 302.381 26.617 301.42 26.0163C300.476 25.4155 299.738 24.5745 299.206 23.4932C298.673 22.3947 298.407 21.1332 298.407 19.7086ZM308.397 20.5839V18.8075C308.397 18.2925 308.259 17.812 307.985 17.3657C307.71 16.9194 307.324 16.559 306.826 16.2844C306.346 16.0098 305.805 15.8724 305.204 15.8724C304.243 15.8724 303.479 16.2243 302.913 16.928C302.364 17.6146 302.089 18.5414 302.089 19.7086C302.089 20.8585 302.372 21.7854 302.939 22.4891C303.505 23.1928 304.252 23.5447 305.179 23.5447C306.105 23.5447 306.869 23.2615 307.47 22.6951C308.088 22.1115 308.397 21.4078 308.397 20.5839Z" fill="#989898"/>
<path d="M317.444 22.8753C317.444 21.6052 317.873 20.6182 318.731 19.9145C319.606 19.2108 321.057 18.6959 323.082 18.3698C324.146 18.1981 324.867 18.0093 325.245 17.8034C325.639 17.5802 325.837 17.2885 325.837 16.928C325.837 16.5161 325.648 16.19 325.27 15.9497C324.893 15.7094 324.378 15.5892 323.725 15.5892C322.987 15.5892 322.344 15.8124 321.795 16.2586C321.262 16.7049 320.919 17.297 320.765 18.0351L317.341 17.2627C317.512 16.3359 317.898 15.512 318.499 14.7911C319.1 14.0702 319.855 13.5124 320.765 13.1176C321.674 12.7057 322.661 12.4998 323.725 12.4998C325.476 12.4998 326.875 12.9889 327.922 13.9673C328.969 14.9456 329.493 16.25 329.493 17.8806V26.5312H326.197V25.0122H326.146C325.751 25.6129 325.193 26.0849 324.472 26.4282C323.768 26.7543 322.97 26.9174 322.078 26.9174C321.185 26.9174 320.387 26.7457 319.683 26.4024C318.98 26.0592 318.43 25.5786 318.036 24.9607C317.641 24.3428 317.444 23.6477 317.444 22.8753ZM325.991 21.4593V19.9145H325.94C325.785 20.172 325.528 20.3779 325.167 20.5324C324.807 20.6869 324.24 20.8414 323.468 20.9958C322.507 21.2018 321.846 21.4249 321.486 21.6652C321.125 21.8884 320.945 22.2059 320.945 22.6178C320.945 23.0126 321.099 23.313 321.408 23.5189C321.734 23.7249 322.198 23.8279 322.799 23.8279C323.348 23.8279 323.871 23.7249 324.369 23.5189C324.867 23.2958 325.262 23.004 325.553 22.6436C325.845 22.266 325.991 21.8712 325.991 21.4593Z" fill="#989898"/>
<path d="M342.298 16.1814V21.6652C342.298 22.1287 342.401 22.4633 342.607 22.6693C342.83 22.8753 343.191 22.9783 343.688 22.9783H346.804V26.5312H343.354C341.843 26.5312 340.676 26.1793 339.852 25.4756C339.028 24.7547 338.617 23.7335 338.617 22.4119V16.1814H335.27V12.8859H338.617V9.41027H342.298V12.8859H347.653V16.1814H342.298Z" fill="#989898"/>
<path d="M366.072 23.1585V26.5312H352.658V23.1585H357.524V16.2586H352.916V12.8859H361.206V23.1585H366.072ZM357.447 7.1189H361.231V10.749H357.447V7.1189Z" fill="#989898"/>
<path d="M370.304 19.7086C370.304 18.3011 370.596 17.0567 371.179 15.9754C371.763 14.8769 372.578 14.0273 373.625 13.4266C374.689 12.8087 375.899 12.4998 377.255 12.4998C378.628 12.4998 379.838 12.8087 380.885 13.4266C381.95 14.0273 382.773 14.8769 383.357 15.9754C383.941 17.0567 384.232 18.3011 384.232 19.7086C384.232 21.116 383.941 22.3689 383.357 23.4674C382.773 24.5488 381.95 25.3984 380.885 26.0163C379.838 26.617 378.628 26.9174 377.255 26.9174C375.899 26.9174 374.689 26.617 373.625 26.0163C372.578 25.3984 371.763 24.5488 371.179 23.4674C370.596 22.3689 370.304 21.116 370.304 19.7086ZM380.551 19.7086C380.551 18.5071 380.259 17.5717 379.675 16.9023C379.109 16.2157 378.302 15.8724 377.255 15.8724C376.225 15.8724 375.419 16.2157 374.835 16.9023C374.269 17.5717 373.986 18.5071 373.986 19.7086C373.986 20.91 374.269 21.854 374.835 22.5406C375.419 23.21 376.225 23.5447 377.255 23.5447C378.285 23.5447 379.092 23.2014 379.675 22.5148C380.259 21.8283 380.551 20.8929 380.551 19.7086Z" fill="#989898"/>
<path d="M388.851 12.8859H392.533V14.1732H392.584C393.133 13.624 393.725 13.2121 394.361 12.9374C394.996 12.6456 395.716 12.4998 396.523 12.4998C397.416 12.4998 398.248 12.7143 399.02 13.1434C399.793 13.5553 400.419 14.199 400.9 15.0743C401.38 15.9325 401.621 17.0053 401.621 18.2925V26.5312H397.939V18.7817C397.939 17.9064 397.716 17.2026 397.27 16.6706C396.824 16.1385 396.18 15.8724 395.339 15.8724C394.463 15.8724 393.777 16.1299 393.279 16.6448C392.781 17.1426 392.533 17.8377 392.533 18.7302V26.5312H388.851V12.8859Z" fill="#989898"/>
<path d="M66.1094 54.5089L71.0533 53.4789C71.3508 55.2871 71.9001 56.5574 72.7012 57.2898C73.5252 58.0222 74.7726 58.3885 76.4435 58.3885C77.6565 58.3885 78.5835 58.1939 79.2244 57.8048C79.8882 57.3928 80.22 56.7977 80.22 56.0195C80.22 55.1955 79.8424 54.4974 79.0871 53.9252C78.3546 53.353 77.0157 52.7579 75.0702 52.1399C72.2549 51.2702 70.2293 50.2631 68.9933 49.1187C67.7802 47.9743 67.1737 46.498 67.1737 44.6898C67.1737 43.3623 67.517 42.1949 68.2037 41.1879C68.9132 40.1579 69.8974 39.3568 71.1563 38.7846C72.438 38.2124 73.8914 37.9263 75.5165 37.9263C77.9198 37.9263 79.9111 38.5557 81.4903 39.8146C83.0925 41.0505 84.1568 42.7672 84.6833 44.9644L79.7394 46.0631C79.3961 44.8271 78.8811 43.9345 78.1944 43.3851C77.5307 42.8129 76.638 42.5268 75.5165 42.5268C74.5094 42.5268 73.7083 42.7328 73.1132 43.1448C72.5181 43.5568 72.2206 44.0832 72.2206 44.7241C72.2206 45.2963 72.5296 45.7999 73.1475 46.2347C73.7655 46.6696 74.9328 47.1617 76.6495 47.711C79.7623 48.7181 81.9824 49.8625 83.31 51.1443C84.6604 52.4032 85.3356 54.0397 85.3356 56.0538C85.3356 57.45 84.9694 58.6746 84.2369 59.7274C83.5045 60.7803 82.4631 61.5928 81.1127 62.165C79.7623 62.7144 78.183 62.989 76.3748 62.989C73.468 62.989 71.1448 62.2566 69.4053 60.7917C67.6658 59.3269 66.5671 57.2326 66.1094 54.5089Z" fill="white"/>
<path d="M100.696 48.6724V55.9852C100.696 56.6032 100.833 57.0495 101.108 57.3241C101.405 57.5988 101.886 57.7361 102.55 57.7361H106.704V62.474H102.103C100.089 62.474 98.5327 62.0048 97.4341 61.0664C96.3354 60.1051 95.7861 58.7432 95.7861 56.9808V48.6724H91.3229V44.2778H95.7861V39.6429H100.696V44.2778H107.837V48.6724H100.696Z" fill="white"/>
<path d="M115.3 57.5988C115.3 55.9051 115.873 54.589 117.017 53.6506C118.184 52.7121 120.118 52.0255 122.819 51.5906C124.238 51.3617 125.2 51.11 125.703 50.8353C126.23 50.5378 126.493 50.1486 126.493 49.668C126.493 49.1187 126.241 48.6838 125.737 48.3634C125.234 48.0429 124.547 47.8827 123.678 47.8827C122.693 47.8827 121.835 48.1803 121.103 48.7753C120.393 49.3704 119.935 50.1601 119.729 51.1443L115.163 50.1143C115.392 48.8783 115.907 47.7797 116.708 46.8184C117.509 45.8571 118.516 45.1132 119.729 44.5868C120.942 44.0375 122.258 43.7628 123.678 43.7628C126.012 43.7628 127.878 44.4151 129.274 45.7198C130.67 47.0244 131.368 48.7639 131.368 50.9383V62.474H126.973V60.4484H126.905C126.378 61.2495 125.634 61.8789 124.673 62.3367C123.735 62.7716 122.67 62.989 121.48 62.989C120.29 62.989 119.226 62.7601 118.287 62.3024C117.349 61.8446 116.616 61.2037 116.09 60.3797C115.564 59.5558 115.3 58.6288 115.3 57.5988ZM126.699 55.7105V53.6506H126.63C126.424 53.9939 126.081 54.2686 125.6 54.4745C125.119 54.6805 124.364 54.8865 123.334 55.0925C122.052 55.3672 121.171 55.6647 120.691 55.9852C120.21 56.2827 119.97 56.7062 119.97 57.2555C119.97 57.7819 120.176 58.1825 120.588 58.4571C121.022 58.7318 121.64 58.8691 122.442 58.8691C123.174 58.8691 123.872 58.7318 124.536 58.4571C125.2 58.1596 125.726 57.7705 126.115 57.2898C126.504 56.7863 126.699 56.2598 126.699 55.7105Z" fill="white"/>
<path d="M148.445 48.6724V55.9852C148.445 56.6032 148.582 57.0495 148.857 57.3241C149.154 57.5988 149.635 57.7361 150.299 57.7361H154.453V62.474H149.852C147.838 62.474 146.282 62.0048 145.183 61.0664C144.084 60.1051 143.535 58.7432 143.535 56.9808V48.6724H139.072V44.2778H143.535V39.6429H148.445V44.2778H155.586V48.6724H148.445Z" fill="white"/>
<path d="M161.916 53.4102C161.916 51.5105 162.306 49.8282 163.084 48.3634C163.862 46.8985 164.949 45.7655 166.345 44.9644C167.742 44.1633 169.355 43.7628 171.186 43.7628C172.949 43.7628 174.516 44.1748 175.89 44.9988C177.286 45.8228 178.373 46.9786 179.151 48.4664C179.93 49.9541 180.319 51.6478 180.319 53.5476V54.9895H166.826C166.895 56.134 167.33 57.0609 168.131 57.7705C168.932 58.48 169.985 58.8348 171.289 58.8348C172.205 58.8348 173.052 58.6402 173.83 58.2511C174.608 57.8391 175.455 57.141 176.37 56.1568L179.426 59.2811C178.373 60.4484 177.16 61.3639 175.787 62.0277C174.413 62.6686 172.914 62.989 171.289 62.989C169.435 62.989 167.799 62.5885 166.38 61.7874C164.961 60.9863 163.862 59.8648 163.084 58.4228C162.306 56.9579 161.916 55.2871 161.916 53.4102ZM175.375 51.419C175.283 50.4119 174.837 49.5764 174.036 48.9127C173.258 48.2489 172.308 47.917 171.186 47.917C170.019 47.917 169.058 48.2375 168.302 48.8783C167.547 49.5192 167.078 50.3661 166.895 51.419H175.375Z" fill="white"/>
<path d="M204.022 57.9765V62.474H186.134V57.9765H192.623V42.9388H186.478V38.4413H197.533V57.9765H204.022Z" fill="white"/>
<path d="M209.665 53.4102C209.665 51.5105 210.055 49.8282 210.833 48.3634C211.611 46.8985 212.698 45.7655 214.094 44.9644C215.491 44.1633 217.104 43.7628 218.935 43.7628C220.698 43.7628 222.266 44.1748 223.639 44.9988C225.035 45.8228 226.122 46.9786 226.9 48.4664C227.679 49.9541 228.068 51.6478 228.068 53.5476V54.9895H214.575C214.644 56.134 215.079 57.0609 215.88 57.7705C216.681 58.48 217.734 58.8348 219.038 58.8348C219.954 58.8348 220.801 58.6402 221.579 58.2511C222.357 57.8391 223.204 57.141 224.119 56.1568L227.175 59.2811C226.122 60.4484 224.909 61.3639 223.536 62.0277C222.163 62.6686 220.663 62.989 219.038 62.989C217.184 62.989 215.548 62.5885 214.129 61.7874C212.71 60.9863 211.611 59.8648 210.833 58.4228C210.055 56.9579 209.665 55.2871 209.665 53.4102ZM223.124 51.419C223.032 50.4119 222.586 49.5764 221.785 48.9127C221.007 48.2489 220.057 47.917 218.935 47.917C217.768 47.917 216.807 48.2375 216.051 48.8783C215.296 49.5192 214.827 50.3661 214.644 51.419H223.124Z" fill="white"/>
<path d="M234.021 56.4658L238.484 55.4359C238.804 56.5803 239.377 57.4615 240.201 58.0795C241.047 58.6746 242.112 58.9721 243.393 58.9721C244.538 58.9721 245.408 58.8348 246.003 58.5601C246.621 58.2855 246.93 57.8964 246.93 57.3928C246.93 56.8206 246.621 56.3857 246.003 56.0882C245.385 55.7677 244.252 55.4473 242.604 55.1269C239.903 54.6233 237.969 53.9252 236.802 53.0326C235.657 52.1399 235.085 50.9154 235.085 49.359C235.085 48.2604 235.405 47.2876 236.046 46.4407C236.687 45.5939 237.58 44.9415 238.724 44.4838C239.892 44.0031 241.219 43.7628 242.707 43.7628C244.744 43.7628 246.552 44.2663 248.131 45.2734C249.711 46.2805 250.775 47.6195 251.324 49.2903L247.101 50.6636C246.758 49.7481 246.197 49.0386 245.419 48.535C244.664 48.0315 243.748 47.7797 242.672 47.7797C241.78 47.7797 241.07 47.9285 240.544 48.226C240.017 48.5007 239.754 48.8898 239.754 49.3933C239.754 49.8511 240.04 50.2288 240.613 50.5263C241.208 50.801 242.272 51.0756 243.805 51.3503C246.598 51.8767 248.589 52.6091 249.779 53.5476C250.992 54.4631 251.599 55.7449 251.599 57.3928C251.599 58.5143 251.256 59.4985 250.569 60.3454C249.905 61.1923 248.944 61.8446 247.685 62.3024C246.449 62.7601 245.019 62.989 243.393 62.989C240.921 62.989 238.862 62.4168 237.214 61.2724C235.589 60.128 234.524 58.5258 234.021 56.4658Z" fill="white"/>
<path d="M257.895 56.4658L262.358 55.4359C262.679 56.5803 263.251 57.4615 264.075 58.0795C264.922 58.6746 265.986 58.9721 267.268 58.9721C268.412 58.9721 269.282 58.8348 269.877 58.5601C270.495 58.2855 270.804 57.8964 270.804 57.3928C270.804 56.8206 270.495 56.3857 269.877 56.0882C269.259 55.7677 268.126 55.4473 266.478 55.1269C263.777 54.6233 261.843 53.9252 260.676 53.0326C259.532 52.1399 258.959 50.9154 258.959 49.359C258.959 48.2604 259.28 47.2876 259.921 46.4407C260.562 45.5939 261.454 44.9415 262.599 44.4838C263.766 44.0031 265.094 43.7628 266.581 43.7628C268.618 43.7628 270.427 44.2663 272.006 45.2734C273.585 46.2805 274.649 47.6195 275.199 49.2903L270.976 50.6636C270.633 49.7481 270.072 49.0386 269.294 48.535C268.538 48.0315 267.623 47.7797 266.547 47.7797C265.654 47.7797 264.945 47.9285 264.418 48.226C263.892 48.5007 263.629 48.8898 263.629 49.3933C263.629 49.8511 263.915 50.2288 264.487 50.5263C265.082 50.801 266.146 51.0756 267.68 51.3503C270.472 51.8767 272.464 52.6091 273.654 53.5476C274.867 54.4631 275.473 55.7449 275.473 57.3928C275.473 58.5143 275.13 59.4985 274.443 60.3454C273.78 61.1923 272.818 61.8446 271.56 62.3024C270.324 62.7601 268.893 62.989 267.268 62.989C264.796 62.989 262.736 62.4168 261.088 61.2724C259.463 60.128 258.399 58.5258 257.895 56.4658Z" fill="white"/>
<path d="M304.649 50.4576C304.649 47.9628 305.072 45.7655 305.919 43.8658C306.789 41.9661 308.002 40.5012 309.558 39.4712C311.137 38.4413 312.957 37.9263 315.017 37.9263C316.642 37.9263 318.13 38.2925 319.48 39.0249C320.831 39.7344 321.929 40.7415 322.776 42.0462C323.646 43.3508 324.172 44.8386 324.355 46.5094L319.377 47.3334C319.125 45.8228 318.61 44.6554 317.832 43.8315C317.077 43.0075 316.139 42.5955 315.017 42.5955C313.392 42.5955 312.099 43.2936 311.137 44.6898C310.199 46.086 309.73 48.0086 309.73 50.4576C309.73 52.9067 310.199 54.8293 311.137 56.2255C312.099 57.6217 313.392 58.3198 315.017 58.3198C316.184 58.3198 317.157 57.8849 317.935 57.0152C318.713 56.1454 319.217 54.8865 319.446 53.2386L324.424 54.0626C324.218 55.8479 323.692 57.4157 322.845 58.7661C321.998 60.1165 320.888 61.1579 319.515 61.8904C318.164 62.6228 316.665 62.989 315.017 62.989C312.957 62.989 311.137 62.474 309.558 61.4441C308.002 60.4141 306.789 58.9492 305.919 57.0495C305.072 55.1498 304.649 52.9525 304.649 50.4576Z" fill="white"/>
<path d="M329.038 53.3759C329.038 51.4991 329.427 49.8397 330.205 48.3977C330.984 46.9328 332.071 45.7999 333.467 44.9988C334.886 44.1748 336.5 43.7628 338.308 43.7628C340.139 43.7628 341.753 44.1748 343.149 44.9988C344.568 45.7999 345.666 46.9328 346.445 48.3977C347.223 49.8397 347.612 51.4991 347.612 53.3759C347.612 55.2528 347.223 56.9236 346.445 58.3885C345.666 59.8304 344.568 60.9634 343.149 61.7874C341.753 62.5885 340.139 62.989 338.308 62.989C336.5 62.989 334.886 62.5885 333.467 61.7874C332.071 60.9634 330.984 59.8304 330.205 58.3885C329.427 56.9236 329.038 55.2528 329.038 53.3759ZM342.702 53.3759C342.702 51.7737 342.313 50.5263 341.535 49.6337C340.78 48.7181 339.704 48.2604 338.308 48.2604C336.935 48.2604 335.859 48.7181 335.081 49.6337C334.325 50.5263 333.948 51.7737 333.948 53.3759C333.948 54.9781 334.325 56.237 335.081 57.1525C335.859 58.0451 336.935 58.4915 338.308 58.4915C339.681 58.4915 340.757 58.0337 341.535 57.1182C342.313 56.2026 342.702 54.9552 342.702 53.3759Z" fill="white"/>
<path d="M353.771 44.2778H358.68V45.9944H358.749C359.482 45.262 360.271 44.7127 361.118 44.3465C361.965 43.9574 362.926 43.7628 364.002 43.7628C365.192 43.7628 366.302 44.0489 367.332 44.6211C368.362 45.1704 369.198 46.0287 369.839 47.1961C370.479 48.3405 370.8 49.771 370.8 51.4876V62.474H365.89V52.1399C365.89 50.9726 365.593 50.0342 364.998 49.3247C364.403 48.6151 363.544 48.2604 362.423 48.2604C361.255 48.2604 360.34 48.6037 359.676 49.2903C359.012 49.9541 358.68 50.8811 358.68 52.0713V62.474H353.771V44.2778Z" fill="white"/>
<path d="M377.268 56.4658L381.731 55.4359C382.051 56.5803 382.624 57.4615 383.448 58.0795C384.294 58.6746 385.359 58.9721 386.641 58.9721C387.785 58.9721 388.655 58.8348 389.25 58.5601C389.868 58.2855 390.177 57.8964 390.177 57.3928C390.177 56.8206 389.868 56.3857 389.25 56.0882C388.632 55.7677 387.499 55.4473 385.851 55.1269C383.15 54.6233 381.216 53.9252 380.049 53.0326C378.904 52.1399 378.332 50.9154 378.332 49.359C378.332 48.2604 378.652 47.2876 379.293 46.4407C379.934 45.5939 380.827 44.9415 381.971 44.4838C383.139 44.0031 384.466 43.7628 385.954 43.7628C387.991 43.7628 389.799 44.2663 391.378 45.2734C392.958 46.2805 394.022 47.6195 394.571 49.2903L390.348 50.6636C390.005 49.7481 389.444 49.0386 388.666 48.535C387.911 48.0315 386.995 47.7797 385.92 47.7797C385.027 47.7797 384.317 47.9285 383.791 48.226C383.264 48.5007 383.001 48.8898 383.001 49.3933C383.001 49.8511 383.287 50.2288 383.86 50.5263C384.455 50.801 385.519 51.0756 387.053 51.3503C389.845 51.8767 391.836 52.6091 393.026 53.5476C394.239 54.4631 394.846 55.7449 394.846 57.3928C394.846 58.5143 394.503 59.4985 393.816 60.3454C393.152 61.1923 392.191 61.8446 390.932 62.3024C389.696 62.7601 388.266 62.989 386.641 62.989C384.169 62.989 382.109 62.4168 380.461 61.2724C378.836 60.128 377.771 58.5258 377.268 56.4658Z" fill="white"/>
<path d="M400.662 53.4102C400.662 51.5105 401.051 49.8282 401.829 48.3634C402.607 46.8985 403.694 45.7655 405.091 44.9644C406.487 44.1633 408.1 43.7628 409.931 43.7628C411.694 43.7628 413.262 44.1748 414.635 44.9988C416.031 45.8228 417.118 46.9786 417.897 48.4664C418.675 49.9541 419.064 51.6478 419.064 53.5476V54.9895H405.571C405.64 56.134 406.075 57.0609 406.876 57.7705C407.677 58.48 408.73 58.8348 410.034 58.8348C410.95 58.8348 411.797 58.6402 412.575 58.2511C413.353 57.8391 414.2 57.141 415.116 56.1568L418.171 59.2811C417.118 60.4484 415.905 61.3639 414.532 62.0277C413.159 62.6686 411.659 62.989 410.034 62.989C408.18 62.989 406.544 62.5885 405.125 61.7874C403.706 60.9863 402.607 59.8648 401.829 58.4228C401.051 56.9579 400.662 55.2871 400.662 53.4102ZM414.12 51.419C414.028 50.4119 413.582 49.5764 412.781 48.9127C412.003 48.2489 411.053 47.917 409.931 47.917C408.764 47.917 407.803 48.2375 407.047 48.8783C406.292 49.5192 405.823 50.3661 405.64 51.419H414.12Z" fill="white"/>
<path d="M425.394 44.2778H430.304V45.9944H430.373C431.105 45.262 431.895 44.7127 432.742 44.3465C433.588 43.9574 434.55 43.7628 435.626 43.7628C436.816 43.7628 437.926 44.0489 438.956 44.6211C439.986 45.1704 440.821 46.0287 441.462 47.1961C442.103 48.3405 442.423 49.771 442.423 51.4876V62.474H437.514V52.1399C437.514 50.9726 437.216 50.0342 436.621 49.3247C436.026 48.6151 435.168 48.2604 434.046 48.2604C432.879 48.2604 431.963 48.6037 431.3 49.2903C430.636 49.9541 430.304 50.8811 430.304 52.0713V62.474H425.394V44.2778Z" fill="white"/>
<path d="M448.891 56.4658L453.355 55.4359C453.675 56.5803 454.247 57.4615 455.071 58.0795C455.918 58.6746 456.982 58.9721 458.264 58.9721C459.408 58.9721 460.278 58.8348 460.873 58.5601C461.491 58.2855 461.8 57.8964 461.8 57.3928C461.8 56.8206 461.491 56.3857 460.873 56.0882C460.255 55.7677 459.122 55.4473 457.474 55.1269C454.774 54.6233 452.84 53.9252 451.672 53.0326C450.528 52.1399 449.956 50.9154 449.956 49.359C449.956 48.2604 450.276 47.2876 450.917 46.4407C451.558 45.5939 452.45 44.9415 453.595 44.4838C454.762 44.0031 456.09 43.7628 457.577 43.7628C459.614 43.7628 461.423 44.2663 463.002 45.2734C464.581 46.2805 465.646 47.6195 466.195 49.2903L461.972 50.6636C461.629 49.7481 461.068 49.0386 460.29 48.535C459.534 48.0315 458.619 47.7797 457.543 47.7797C456.65 47.7797 455.941 47.9285 455.414 48.226C454.888 48.5007 454.625 48.8898 454.625 49.3933C454.625 49.8511 454.911 50.2288 455.483 50.5263C456.078 50.801 457.143 51.0756 458.676 51.3503C461.468 51.8767 463.46 52.6091 464.65 53.5476C465.863 54.4631 466.47 55.7449 466.47 57.3928C466.47 58.5143 466.126 59.4985 465.44 60.3454C464.776 61.1923 463.814 61.8446 462.556 62.3024C461.32 62.7601 459.889 62.989 458.264 62.989C455.792 62.989 453.732 62.4168 452.084 61.2724C450.459 60.128 449.395 58.5258 448.891 56.4658Z" fill="white"/>
<path d="M473.315 56.2942V44.2778H478.225V55.1612C478.225 57.3814 479.323 58.4915 481.521 58.4915C482.505 58.4915 483.283 58.1939 483.855 57.5988C484.45 56.9808 484.748 56.1683 484.748 55.1612V44.2778H489.657V62.474H484.954V60.8604H484.885C484.382 61.5013 483.684 62.0163 482.791 62.4054C481.921 62.7945 481.006 62.989 480.044 62.989C477.893 62.989 476.233 62.4054 475.066 61.2381C473.899 60.0479 473.315 58.3999 473.315 56.2942Z" fill="white"/>
<path d="M496.64 56.4658L501.104 55.4359C501.424 56.5803 501.996 57.4615 502.82 58.0795C503.667 58.6746 504.731 58.9721 506.013 58.9721C507.158 58.9721 508.027 58.8348 508.622 58.5601C509.24 58.2855 509.549 57.8964 509.549 57.3928C509.549 56.8206 509.24 56.3857 508.622 56.0882C508.004 55.7677 506.871 55.4473 505.223 55.1269C502.523 54.6233 500.589 53.9252 499.421 53.0326C498.277 52.1399 497.705 50.9154 497.705 49.359C497.705 48.2604 498.025 47.2876 498.666 46.4407C499.307 45.5939 500.199 44.9415 501.344 44.4838C502.511 44.0031 503.839 43.7628 505.326 43.7628C507.364 43.7628 509.172 44.2663 510.751 45.2734C512.33 46.2805 513.395 47.6195 513.944 49.2903L509.721 50.6636C509.378 49.7481 508.817 49.0386 508.039 48.535C507.283 48.0315 506.368 47.7797 505.292 47.7797C504.399 47.7797 503.69 47.9285 503.164 48.226C502.637 48.5007 502.374 48.8898 502.374 49.3933C502.374 49.8511 502.66 50.2288 503.232 50.5263C503.827 50.801 504.892 51.0756 506.425 51.3503C509.217 51.8767 511.209 52.6091 512.399 53.5476C513.612 54.4631 514.219 55.7449 514.219 57.3928C514.219 58.5143 513.875 59.4985 513.189 60.3454C512.525 61.1923 511.564 61.8446 510.305 62.3024C509.069 62.7601 507.638 62.989 506.013 62.989C503.541 62.989 501.481 62.4168 499.833 61.2724C498.208 60.128 497.144 58.5258 496.64 56.4658Z" fill="white"/>
</svg>
