<svg width="515" height="75" viewBox="0 0 515 75" fill="none" xmlns="http://www.w3.org/2000/svg">
<path d="M22.3991 56.3561V74.2285L0.789062 42.5403L22.3991 56.3561Z" fill="#0DAFD2"/>
<path d="M44.0099 42.5403L22.3984 74.2285V56.3561L44.0099 42.5403Z" fill="#667BBC"/>
<path d="M44.0099 38.0754L22.3984 25.7478V51.8927L44.0099 38.0754Z" fill="#9E69AC"/>
<path d="M44.0099 38.0756L22.3984 0.413574V25.748L44.0099 38.0756Z" fill="#F58B77"/>
<path d="M22.3991 0.413574V25.748L0.789062 38.0756L22.3991 0.413574Z" fill="#F9EC7B"/>
<path d="M22.3991 25.7478V51.8927L0.789062 38.0754L22.3991 25.7478Z" fill="#54BC7A"/>
<path d="M65.9375 19.6501C65.9375 18.2255 66.2293 16.9639 66.8129 15.8655C67.3964 14.767 68.2117 13.9174 69.2587 13.3166C70.3057 12.7159 71.5157 12.4155 72.8888 12.4155C74.2105 12.4155 75.3862 12.7245 76.416 13.3424C77.463 13.9603 78.2783 14.827 78.8619 15.9427C79.4454 17.0583 79.7372 18.3285 79.7372 19.7531V20.8344H69.6191C69.6706 21.6926 69.9967 22.3877 70.5975 22.9198C71.1982 23.4519 71.9877 23.7179 72.9661 23.7179C73.6526 23.7179 74.2877 23.572 74.8713 23.2802C75.4548 22.9713 76.0899 22.4478 76.7764 21.7097L79.0678 24.0526C78.2783 24.9279 77.3686 25.6145 76.3388 26.1122C75.3089 26.5928 74.1847 26.8331 72.9661 26.8331C71.5758 26.8331 70.3486 26.5328 69.2844 25.932C68.2203 25.3313 67.3964 24.4903 66.8129 23.4089C66.2293 22.3105 65.9375 21.0575 65.9375 19.6501ZM76.0298 18.1568C75.9612 17.4016 75.6265 16.7751 75.0257 16.2774C74.4422 15.7796 73.7299 15.5308 72.8888 15.5308C72.0135 15.5308 71.2926 15.771 70.7262 16.2516C70.1598 16.7322 69.8079 17.3673 69.6706 18.1568H76.0298Z" fill="#989898"/>
<path d="M91.6418 16.0972V21.581C91.6418 22.0444 91.7448 22.3791 91.9507 22.5851C92.1739 22.791 92.5343 22.894 93.0321 22.894H96.1473V26.4469H92.6974C91.1869 26.4469 90.0198 26.0951 89.1959 25.3914C88.3721 24.6705 87.9601 23.6492 87.9601 22.3276V16.0972H84.6132V12.8017H87.9601V9.32604H91.6418V12.8017H96.9969V16.0972H91.6418Z" fill="#989898"/>
<path d="M102.388 7.65257H106.069V14.0632H106.121C107.082 12.9648 108.395 12.4155 110.06 12.4155C111.056 12.4155 111.939 12.6558 112.712 13.1364C113.484 13.617 114.085 14.295 114.514 15.1703C114.943 16.0457 115.158 17.0583 115.158 18.2083V26.4469H111.476V18.6975C111.476 17.7878 111.244 17.0755 110.781 16.5606C110.317 16.0457 109.682 15.7882 108.876 15.7882C108 15.7882 107.314 16.0457 106.816 16.5606C106.318 17.0583 106.069 17.7535 106.069 18.646V26.4469H102.388V7.65257Z" fill="#989898"/>
<path d="M119.647 19.6501C119.647 18.2255 119.939 16.9639 120.523 15.8655C121.106 14.767 121.922 13.9174 122.969 13.3166C124.016 12.7159 125.226 12.4155 126.599 12.4155C127.92 12.4155 129.096 12.7245 130.126 13.3424C131.173 13.9603 131.988 14.827 132.572 15.9427C133.155 17.0583 133.447 18.3285 133.447 19.7531V20.8344H123.329C123.381 21.6926 123.707 22.3877 124.307 22.9198C124.908 23.4519 125.698 23.7179 126.676 23.7179C127.363 23.7179 127.998 23.572 128.581 23.2802C129.165 22.9713 129.8 22.4478 130.486 21.7097L132.778 24.0526C131.988 24.9279 131.079 25.6145 130.049 26.1122C129.019 26.5928 127.895 26.8331 126.676 26.8331C125.286 26.8331 124.059 26.5328 122.994 25.932C121.93 25.3313 121.106 24.4903 120.523 23.4089C119.939 22.3105 119.647 21.0575 119.647 19.6501ZM129.74 18.1568C129.671 17.4016 129.336 16.7751 128.736 16.2774C128.152 15.7796 127.44 15.5308 126.599 15.5308C125.723 15.5308 125.003 15.771 124.436 16.2516C123.87 16.7322 123.518 17.3673 123.381 18.1568H129.74Z" fill="#989898"/>
<path d="M139.199 12.8017H142.726V14.0632H142.777C143.361 13.4797 143.962 13.0592 144.579 12.8017C145.214 12.5443 145.935 12.4155 146.742 12.4155C147.926 12.4155 148.948 12.7674 149.806 13.4711C150.664 14.1577 151.265 15.1017 151.608 16.3031L148.158 17.4359C147.763 16.3203 146.948 15.7625 145.712 15.7625C144.785 15.7625 144.082 16.0371 143.601 16.5863C143.12 17.1184 142.88 17.8565 142.88 18.8005V26.4469H139.199V12.8017Z" fill="#989898"/>
<path d="M155.454 19.6501C155.454 18.2255 155.746 16.9639 156.33 15.8655C156.913 14.767 157.728 13.9174 158.775 13.3166C159.822 12.7159 161.032 12.4155 162.406 12.4155C163.727 12.4155 164.903 12.7245 165.933 13.3424C166.98 13.9603 167.795 14.827 168.379 15.9427C168.962 17.0583 169.254 18.3285 169.254 19.7531V20.8344H159.136C159.187 21.6926 159.513 22.3877 160.114 22.9198C160.715 23.4519 161.504 23.7179 162.483 23.7179C163.169 23.7179 163.804 23.572 164.388 23.2802C164.972 22.9713 165.607 22.4478 166.293 21.7097L168.584 24.0526C167.795 24.9279 166.885 25.6145 165.855 26.1122C164.826 26.5928 163.701 26.8331 162.483 26.8331C161.092 26.8331 159.865 26.5328 158.801 25.932C157.737 25.3313 156.913 24.4903 156.33 23.4089C155.746 22.3105 155.454 21.0575 155.454 19.6501ZM165.546 18.1568C165.478 17.4016 165.143 16.7751 164.542 16.2774C163.959 15.7796 163.247 15.5308 162.406 15.5308C161.53 15.5308 160.809 15.771 160.243 16.2516C159.676 16.7322 159.325 17.3673 159.187 18.1568H165.546Z" fill="#989898"/>
<path d="M174.13 21.8127V12.8017H177.812V20.9631C177.812 22.628 178.635 23.4604 180.283 23.4604C181.021 23.4604 181.605 23.2373 182.034 22.791C182.48 22.3276 182.703 21.7183 182.703 20.9631V12.8017H186.385V26.4469H182.858V25.2369H182.806C182.429 25.7175 181.905 26.1037 181.236 26.3955C180.583 26.6872 179.897 26.8331 179.176 26.8331C177.563 26.8331 176.318 26.3955 175.443 25.5201C174.568 24.6276 174.13 23.3918 174.13 21.8127Z" fill="#989898"/>
<path d="M190.875 12.8017H194.119V13.986H194.17C194.462 13.5226 194.831 13.1707 195.277 12.9304C195.741 12.673 196.247 12.5443 196.796 12.5443C197.877 12.5443 198.744 13.0506 199.396 14.0632H199.448C200.135 13.0506 201.079 12.5443 202.28 12.5443C203.275 12.5443 204.082 12.8961 204.7 13.5998C205.318 14.3035 205.627 15.2218 205.627 16.3546V26.4469H202.229V16.9983C202.229 16.6035 202.126 16.3031 201.92 16.0972C201.714 15.8912 201.422 15.7882 201.044 15.7882C200.684 15.7882 200.392 15.9084 200.169 16.1487C199.963 16.3718 199.86 16.6807 199.86 17.0755V26.4469H196.642V16.9983C196.642 16.6207 196.539 16.3289 196.333 16.1229C196.144 15.8998 195.869 15.7882 195.509 15.7882C195.131 15.7882 194.831 15.9084 194.608 16.1487C194.385 16.3718 194.273 16.6807 194.273 17.0755V26.4469H190.875V12.8017Z" fill="#989898"/>
<path d="M231.187 17.6162H227.582V14.3207H231.187V12.3125C231.187 11.1111 231.582 10.1671 232.371 9.48051C233.178 8.77679 234.285 8.42494 235.692 8.42494H239.657V11.6946H236.13C235.77 11.6946 235.495 11.789 235.306 11.9778C235.117 12.1666 235.023 12.4327 235.023 12.776V14.3207H240.481V17.6162H235.023V26.4469H231.187V17.6162Z" fill="#989898"/>
<path d="M244.971 19.6243C244.971 18.2169 245.263 16.9725 245.846 15.8912C246.43 14.7927 247.245 13.9431 248.292 13.3424C249.356 12.7245 250.566 12.4155 251.922 12.4155C253.295 12.4155 254.505 12.7245 255.552 13.3424C256.616 13.9431 257.44 14.7927 258.024 15.8912C258.607 16.9725 258.899 18.2169 258.899 19.6243C258.899 21.0318 258.607 22.2847 258.024 23.3832C257.44 24.4645 256.616 25.3141 255.552 25.932C254.505 26.5328 253.295 26.8331 251.922 26.8331C250.566 26.8331 249.356 26.5328 248.292 25.932C247.245 25.3141 246.43 24.4645 245.846 23.3832C245.263 22.2847 244.971 21.0318 244.971 19.6243ZM255.218 19.6243C255.218 18.4229 254.926 17.4874 254.342 16.818C253.776 16.1315 252.969 15.7882 251.922 15.7882C250.892 15.7882 250.086 16.1315 249.502 16.818C248.936 17.4874 248.652 18.4229 248.652 19.6243C248.652 20.8258 248.936 21.7698 249.502 22.4564C250.086 23.1257 250.892 23.4604 251.922 23.4604C252.952 23.4604 253.759 23.1172 254.342 22.4306C254.926 21.7441 255.218 20.8086 255.218 19.6243Z" fill="#989898"/>
<path d="M263.647 21.8127V12.8017H267.328V20.9631C267.328 22.628 268.152 23.4604 269.8 23.4604C270.538 23.4604 271.121 23.2373 271.55 22.791C271.997 22.3276 272.22 21.7183 272.22 20.9631V12.8017H275.902V26.4469H272.374V25.2369H272.323C271.945 25.7175 271.422 26.1037 270.752 26.3955C270.1 26.6872 269.414 26.8331 268.693 26.8331C267.079 26.8331 265.835 26.3955 264.96 25.5201C264.084 24.6276 263.647 23.3918 263.647 21.8127Z" fill="#989898"/>
<path d="M281.421 12.8017H285.103V14.089H285.154C285.704 13.5398 286.296 13.1278 286.931 12.8532C287.566 12.5614 288.287 12.4155 289.093 12.4155C289.986 12.4155 290.818 12.6301 291.591 13.0592C292.363 13.4711 292.99 14.1147 293.47 14.9901C293.951 15.8483 294.191 16.921 294.191 18.2083V26.4469H290.509V18.6975C290.509 17.8221 290.286 17.1184 289.84 16.5863C289.394 16.0543 288.75 15.7882 287.909 15.7882C287.034 15.7882 286.347 16.0457 285.849 16.5606C285.352 17.0583 285.103 17.7535 285.103 18.646V26.4469H281.421V12.8017Z" fill="#989898"/>
<path d="M298.398 19.6243C298.398 18.2512 298.664 17.0154 299.196 15.9169C299.728 14.8185 300.474 13.9603 301.436 13.3424C302.397 12.7245 303.487 12.4155 304.705 12.4155C306.25 12.4155 307.46 12.8275 308.335 13.6513H308.387V7.65257H312.069V26.4469H308.67V25.2626H308.619C307.606 26.3096 306.284 26.8331 304.654 26.8331C303.452 26.8331 302.371 26.5328 301.41 25.932C300.466 25.3313 299.728 24.4903 299.196 23.4089C298.664 22.3105 298.398 21.0489 298.398 19.6243ZM308.387 20.4997V18.7232C308.387 18.2083 308.25 17.7277 307.975 17.2815C307.7 16.8352 307.314 16.4748 306.816 16.2001C306.336 15.9255 305.795 15.7882 305.195 15.7882C304.233 15.7882 303.47 16.1401 302.903 16.8438C302.354 17.5303 302.079 18.4572 302.079 19.6243C302.079 20.7743 302.362 21.7011 302.929 22.4049C303.495 23.1086 304.242 23.4604 305.169 23.4604C306.096 23.4604 306.859 23.1772 307.46 22.6108C308.078 22.0273 308.387 21.3235 308.387 20.4997Z" fill="#989898"/>
<path d="M317.434 22.791C317.434 21.5209 317.863 20.534 318.721 19.8303C319.596 19.1266 321.047 18.6117 323.072 18.2855C324.136 18.1139 324.857 17.9251 325.235 17.7191C325.63 17.496 325.827 17.2042 325.827 16.8438C325.827 16.4319 325.638 16.1057 325.26 15.8655C324.883 15.6252 324.368 15.505 323.716 15.505C322.978 15.505 322.334 15.7281 321.785 16.1744C321.253 16.6207 320.909 17.2128 320.755 17.9509L317.331 17.1785C317.502 16.2516 317.889 15.4278 318.489 14.7069C319.09 13.986 319.845 13.4282 320.755 13.0334C321.665 12.6215 322.652 12.4155 323.716 12.4155C325.466 12.4155 326.865 12.9047 327.912 13.883C328.959 14.8614 329.483 16.1658 329.483 17.7964V26.4469H326.187V24.9279H326.136C325.741 25.5287 325.183 26.0007 324.462 26.344C323.759 26.6701 322.961 26.8331 322.068 26.8331C321.175 26.8331 320.377 26.6615 319.674 26.3182C318.97 25.9749 318.421 25.4944 318.026 24.8765C317.631 24.2586 317.434 23.5634 317.434 22.791ZM325.981 21.375V19.8303H325.93C325.775 20.0877 325.518 20.2937 325.158 20.4482C324.797 20.6027 324.231 20.7571 323.458 20.9116C322.497 21.1176 321.836 21.3407 321.476 21.581C321.115 21.8041 320.935 22.1217 320.935 22.5336C320.935 22.9284 321.09 23.2287 321.399 23.4347C321.725 23.6407 322.188 23.7436 322.789 23.7436C323.338 23.7436 323.862 23.6407 324.359 23.4347C324.857 23.2116 325.252 22.9198 325.544 22.5593C325.835 22.1817 325.981 21.787 325.981 21.375Z" fill="#989898"/>
<path d="M342.288 16.0972V21.581C342.288 22.0444 342.391 22.3791 342.597 22.5851C342.821 22.791 343.181 22.894 343.679 22.894H346.794V26.4469H343.344C341.834 26.4469 340.666 26.0951 339.843 25.3914C339.019 24.6705 338.607 23.6492 338.607 22.3276V16.0972H335.26V12.8017H338.607V9.32604H342.288V12.8017H347.644V16.0972H342.288Z" fill="#989898"/>
<path d="M366.062 23.0743V26.4469H352.648V23.0743H357.514V16.1744H352.906V12.8017H361.196V23.0743H366.062ZM357.437 7.03467H361.222V10.6648H357.437V7.03467Z" fill="#989898"/>
<path d="M370.294 19.6243C370.294 18.2169 370.586 16.9725 371.17 15.8912C371.753 14.7927 372.568 13.9431 373.615 13.3424C374.68 12.7245 375.89 12.4155 377.246 12.4155C378.619 12.4155 379.829 12.7245 380.876 13.3424C381.94 13.9431 382.764 14.7927 383.347 15.8912C383.931 16.9725 384.223 18.2169 384.223 19.6243C384.223 21.0318 383.931 22.2847 383.347 23.3832C382.764 24.4645 381.94 25.3141 380.876 25.932C379.829 26.5328 378.619 26.8331 377.246 26.8331C375.89 26.8331 374.68 26.5328 373.615 25.932C372.568 25.3141 371.753 24.4645 371.17 23.3832C370.586 22.2847 370.294 21.0318 370.294 19.6243ZM380.541 19.6243C380.541 18.4229 380.249 17.4874 379.666 16.818C379.099 16.1315 378.293 15.7882 377.246 15.7882C376.216 15.7882 375.409 16.1315 374.825 16.818C374.259 17.4874 373.976 18.4229 373.976 19.6243C373.976 20.8258 374.259 21.7698 374.825 22.4564C375.409 23.1257 376.216 23.4604 377.246 23.4604C378.275 23.4604 379.082 23.1172 379.666 22.4306C380.249 21.7441 380.541 20.8086 380.541 19.6243Z" fill="#989898"/>
<path d="M388.841 12.8017H392.523V14.089H392.574C393.124 13.5398 393.716 13.1278 394.351 12.8532C394.986 12.5614 395.707 12.4155 396.513 12.4155C397.406 12.4155 398.238 12.6301 399.011 13.0592C399.783 13.4711 400.41 14.1147 400.89 14.9901C401.371 15.8483 401.611 16.921 401.611 18.2083V26.4469H397.929V18.6975C397.929 17.8221 397.706 17.1184 397.26 16.5863C396.814 16.0543 396.17 15.7882 395.329 15.7882C394.454 15.7882 393.767 16.0457 393.269 16.5606C392.772 17.0583 392.523 17.7535 392.523 18.646V26.4469H388.841V12.8017Z" fill="#989898"/>
<path d="M66.1016 54.4247L71.0454 53.3947C71.343 55.2029 71.8923 56.4732 72.6934 57.2056C73.5174 57.938 74.7648 58.3042 76.4357 58.3042C77.6487 58.3042 78.5757 58.1097 79.2166 57.7206C79.8804 57.3086 80.2122 56.7135 80.2122 55.9353C80.2122 55.1113 79.8346 54.4132 79.0793 53.841C78.3468 53.2688 77.0079 52.6737 75.0624 52.0557C72.2471 51.1859 70.2215 50.1789 68.9855 49.0344C67.7724 47.89 67.1659 46.4137 67.1659 44.6055C67.1659 43.278 67.5092 42.1107 68.1958 41.1036C68.9054 40.0737 69.8896 39.2726 71.1484 38.7004C72.4302 38.1281 73.8836 37.842 75.5087 37.842C77.912 37.842 79.9032 38.4715 81.4825 39.7303C83.0847 40.9663 84.149 42.6829 84.6755 44.8802L79.7316 45.9789C79.3883 44.7429 78.8733 43.8502 78.1866 43.3009C77.5229 42.7287 76.6302 42.4426 75.5087 42.4426C74.5016 42.4426 73.7005 42.6486 73.1054 43.0606C72.5103 43.4726 72.2128 43.999 72.2128 44.6399C72.2128 45.2121 72.5217 45.7156 73.1397 46.1505C73.7577 46.5854 74.925 47.0775 76.6416 47.6268C79.7545 48.6339 81.9746 49.7783 83.3022 51.0601C84.6526 52.3189 85.3278 53.9554 85.3278 55.9696C85.3278 57.3658 84.9616 58.5903 84.2291 59.6432C83.4967 60.6961 82.4553 61.5086 81.1049 62.0808C79.7545 62.6301 78.1752 62.9048 76.367 62.9048C73.4602 62.9048 71.137 62.1724 69.3975 60.7075C67.658 59.2426 66.5593 57.1484 66.1016 54.4247Z" fill="#36364C"/>
<path d="M100.688 48.5881V55.901C100.688 56.5189 100.825 56.9653 101.1 57.2399C101.397 57.5146 101.878 57.6519 102.542 57.6519H106.696V62.3898H102.095C100.081 62.3898 98.5249 61.9206 97.4262 60.9822C96.3276 60.0209 95.7783 58.659 95.7783 56.8966V48.5881H91.315V44.1936H95.7783V39.5587H100.688V44.1936H107.829V48.5881H100.688Z" fill="#36364C"/>
<path d="M115.293 57.5146C115.293 55.8208 115.865 54.5048 117.009 53.5663C118.176 52.6279 120.111 51.9413 122.811 51.5064C124.23 51.2775 125.192 51.0257 125.695 50.7511C126.222 50.4535 126.485 50.0644 126.485 49.5838C126.485 49.0344 126.233 48.5996 125.73 48.2791C125.226 47.9587 124.539 47.7985 123.67 47.7985C122.686 47.7985 121.827 48.096 121.095 48.6911C120.385 49.2862 119.927 50.0759 119.721 51.0601L115.155 50.0301C115.384 48.7941 115.899 47.6955 116.7 46.7342C117.501 45.7729 118.508 45.029 119.721 44.5026C120.935 43.9532 122.251 43.6786 123.67 43.6786C126.004 43.6786 127.87 44.3309 129.266 45.6355C130.662 46.9402 131.36 48.6797 131.36 50.8541V62.3898H126.966V60.3642H126.897C126.371 61.1653 125.627 61.7947 124.665 62.2525C123.727 62.6873 122.663 62.9048 121.472 62.9048C120.282 62.9048 119.218 62.6759 118.279 62.2181C117.341 61.7604 116.609 61.1195 116.082 60.2955C115.556 59.4715 115.293 58.5446 115.293 57.5146ZM126.691 55.6263V53.5663H126.622C126.416 53.9097 126.073 54.1843 125.592 54.3903C125.112 54.5963 124.356 54.8023 123.326 55.0083C122.045 55.283 121.163 55.5805 120.683 55.901C120.202 56.1985 119.962 56.6219 119.962 57.1713C119.962 57.6977 120.168 58.0982 120.58 58.3729C121.015 58.6476 121.633 58.7849 122.434 58.7849C123.166 58.7849 123.864 58.6476 124.528 58.3729C125.192 58.0753 125.718 57.6862 126.107 57.2056C126.496 56.702 126.691 56.1756 126.691 55.6263Z" fill="#36364C"/>
<path d="M148.437 48.5881V55.901C148.437 56.5189 148.574 56.9653 148.849 57.2399C149.146 57.5146 149.627 57.6519 150.291 57.6519H154.445V62.3898H149.844C147.83 62.3898 146.274 61.9206 145.175 60.9822C144.077 60.0209 143.527 58.659 143.527 56.8966V48.5881H139.064V44.1936H143.527V39.5587H148.437V44.1936H155.578V48.5881H148.437Z" fill="#36364C"/>
<path d="M161.909 53.326C161.909 51.4263 162.298 49.744 163.076 48.2791C163.854 46.8143 164.941 45.6813 166.338 44.8802C167.734 44.0791 169.347 43.6786 171.178 43.6786C172.941 43.6786 174.509 44.0906 175.882 44.9145C177.278 45.7385 178.365 46.8944 179.144 48.3821C179.922 49.8699 180.311 51.5636 180.311 53.4633V54.9053H166.818C166.887 56.0497 167.322 56.9767 168.123 57.6862C168.924 58.3958 169.977 58.7506 171.281 58.7506C172.197 58.7506 173.044 58.556 173.822 58.1669C174.6 57.7549 175.447 57.0568 176.363 56.0726L179.418 59.1969C178.365 60.3642 177.152 61.2797 175.779 61.9435C174.406 62.5843 172.906 62.9048 171.281 62.9048C169.427 62.9048 167.791 62.5042 166.372 61.7031C164.953 60.9021 163.854 59.7805 163.076 58.3386C162.298 56.8737 161.909 55.2029 161.909 53.326ZM175.367 51.3347C175.275 50.3276 174.829 49.4922 174.028 48.8285C173.25 48.1647 172.3 47.8328 171.178 47.8328C170.011 47.8328 169.05 48.1532 168.294 48.7941C167.539 49.435 167.07 50.2819 166.887 51.3347H175.367Z" fill="#36364C"/>
<path d="M204.014 57.8922V62.3898H186.126V57.8922H192.615V42.8546H186.47V38.357H197.525V57.8922H204.014Z" fill="#36364C"/>
<path d="M209.658 53.326C209.658 51.4263 210.047 49.744 210.825 48.2791C211.603 46.8143 212.69 45.6813 214.087 44.8802C215.483 44.0791 217.096 43.6786 218.927 43.6786C220.69 43.6786 222.258 44.0906 223.631 44.9145C225.027 45.7385 226.114 46.8944 226.893 48.3821C227.671 49.8699 228.06 51.5636 228.06 53.4633V54.9053H214.567C214.636 56.0497 215.071 56.9767 215.872 57.6862C216.673 58.3958 217.726 58.7506 219.03 58.7506C219.946 58.7506 220.793 58.556 221.571 58.1669C222.349 57.7549 223.196 57.0568 224.112 56.0726L227.167 59.1969C226.114 60.3642 224.901 61.2797 223.528 61.9435C222.155 62.5843 220.656 62.9048 219.03 62.9048C217.176 62.9048 215.54 62.5042 214.121 61.7031C212.702 60.9021 211.603 59.7805 210.825 58.3386C210.047 56.8737 209.658 55.2029 209.658 53.326ZM223.116 51.3347C223.024 50.3276 222.578 49.4922 221.777 48.8285C220.999 48.1647 220.049 47.8328 218.927 47.8328C217.76 47.8328 216.799 48.1532 216.044 48.7941C215.288 49.435 214.819 50.2819 214.636 51.3347H223.116Z" fill="#36364C"/>
<path d="M234.013 56.3816L238.476 55.3516C238.797 56.496 239.369 57.3773 240.193 57.9952C241.04 58.5903 242.104 58.8879 243.386 58.8879C244.53 58.8879 245.4 58.7506 245.995 58.4759C246.613 58.2012 246.922 57.8121 246.922 57.3086C246.922 56.7364 246.613 56.3015 245.995 56.0039C245.377 55.6835 244.244 55.3631 242.596 55.0426C239.895 54.5391 237.961 53.841 236.794 52.9484C235.649 52.0557 235.077 50.8312 235.077 49.2748C235.077 48.1761 235.398 47.2034 236.038 46.3565C236.679 45.5096 237.572 44.8573 238.716 44.3996C239.884 43.9189 241.211 43.6786 242.699 43.6786C244.736 43.6786 246.544 44.1821 248.124 45.1892C249.703 46.1963 250.767 47.5353 251.316 49.2061L247.094 50.5794C246.75 49.6639 246.189 48.9543 245.411 48.4508C244.656 47.9472 243.74 47.6955 242.665 47.6955C241.772 47.6955 241.062 47.8443 240.536 48.1418C240.01 48.4165 239.746 48.8056 239.746 49.3091C239.746 49.7669 240.032 50.1445 240.605 50.4421C241.2 50.7167 242.264 50.9914 243.798 51.2661C246.59 51.7925 248.581 52.5249 249.771 53.4633C250.985 54.3789 251.591 55.6606 251.591 57.3086C251.591 58.4301 251.248 59.4143 250.561 60.2612C249.897 61.1081 248.936 61.7604 247.677 62.2181C246.441 62.6759 245.011 62.9048 243.386 62.9048C240.914 62.9048 238.854 62.3326 237.206 61.1882C235.581 60.0437 234.516 58.4416 234.013 56.3816Z" fill="#36364C"/>
<path d="M257.887 56.3816L262.351 55.3516C262.671 56.496 263.243 57.3773 264.067 57.9952C264.914 58.5903 265.978 58.8879 267.26 58.8879C268.405 58.8879 269.274 58.7506 269.869 58.4759C270.487 58.2012 270.796 57.8121 270.796 57.3086C270.796 56.7364 270.487 56.3015 269.869 56.0039C269.251 55.6835 268.118 55.3631 266.47 55.0426C263.77 54.5391 261.836 53.841 260.668 52.9484C259.524 52.0557 258.952 50.8312 258.952 49.2748C258.952 48.1761 259.272 47.2034 259.913 46.3565C260.554 45.5096 261.446 44.8573 262.591 44.3996C263.758 43.9189 265.086 43.6786 266.573 43.6786C268.611 43.6786 270.419 44.1821 271.998 45.1892C273.577 46.1963 274.642 47.5353 275.191 49.2061L270.968 50.5794C270.625 49.6639 270.064 48.9543 269.286 48.4508C268.53 47.9472 267.615 47.6955 266.539 47.6955C265.647 47.6955 264.937 47.8443 264.411 48.1418C263.884 48.4165 263.621 48.8056 263.621 49.3091C263.621 49.7669 263.907 50.1445 264.479 50.4421C265.074 50.7167 266.139 50.9914 267.672 51.2661C270.464 51.7925 272.456 52.5249 273.646 53.4633C274.859 54.3789 275.466 55.6606 275.466 57.3086C275.466 58.4301 275.122 59.4143 274.436 60.2612C273.772 61.1081 272.811 61.7604 271.552 62.2181C270.316 62.6759 268.885 62.9048 267.26 62.9048C264.788 62.9048 262.728 62.3326 261.08 61.1882C259.455 60.0437 258.391 58.4416 257.887 56.3816Z" fill="#36364C"/>
<path d="M304.641 50.3734C304.641 47.8786 305.064 45.6813 305.911 43.7816C306.781 41.8818 307.994 40.417 309.55 39.387C311.13 38.357 312.949 37.842 315.009 37.842C316.634 37.842 318.122 38.2083 319.472 38.9407C320.823 39.6502 321.921 40.6573 322.768 41.9619C323.638 43.2666 324.165 44.7543 324.348 46.4252L319.369 47.2492C319.118 45.7385 318.603 44.5712 317.824 43.7472C317.069 42.9233 316.131 42.5113 315.009 42.5113C313.384 42.5113 312.091 43.2094 311.13 44.6055C310.191 46.0017 309.722 47.9244 309.722 50.3734C309.722 52.8225 310.191 54.7451 311.13 56.1413C312.091 57.5375 313.384 58.2356 315.009 58.2356C316.176 58.2356 317.149 57.8007 317.927 56.9309C318.706 56.0612 319.209 54.8023 319.438 53.1543L324.416 53.9783C324.21 55.7636 323.684 57.3315 322.837 58.6819C321.99 60.0323 320.88 61.0737 319.507 61.8061C318.156 62.5386 316.657 62.9048 315.009 62.9048C312.949 62.9048 311.13 62.3898 309.55 61.3598C307.994 60.3298 306.781 58.865 305.911 56.9653C305.064 55.0655 304.641 52.8682 304.641 50.3734Z" fill="#36364C"/>
<path d="M329.03 53.2917C329.03 51.4148 329.419 49.7554 330.198 48.3135C330.976 46.8486 332.063 45.7156 333.459 44.9145C334.878 44.0906 336.492 43.6786 338.3 43.6786C340.131 43.6786 341.745 44.0906 343.141 44.9145C344.56 45.7156 345.659 46.8486 346.437 48.3135C347.215 49.7554 347.604 51.4148 347.604 53.2917C347.604 55.1685 347.215 56.8394 346.437 58.3042C345.659 59.7462 344.56 60.8792 343.141 61.7031C341.745 62.5042 340.131 62.9048 338.3 62.9048C336.492 62.9048 334.878 62.5042 333.459 61.7031C332.063 60.8792 330.976 59.7462 330.198 58.3042C329.419 56.8394 329.03 55.1685 329.03 53.2917ZM342.695 53.2917C342.695 51.6895 342.305 50.4421 341.527 49.5494C340.772 48.6339 339.696 48.1761 338.3 48.1761C336.927 48.1761 335.851 48.6339 335.073 49.5494C334.317 50.4421 333.94 51.6895 333.94 53.2917C333.94 54.8939 334.317 56.1527 335.073 57.0683C335.851 57.9609 336.927 58.4072 338.3 58.4072C339.673 58.4072 340.749 57.9495 341.527 57.0339C342.305 56.1184 342.695 54.871 342.695 53.2917Z" fill="#36364C"/>
<path d="M353.763 44.1936H358.673V45.9102H358.741C359.474 45.1778 360.263 44.6284 361.11 44.2622C361.957 43.8731 362.918 43.6786 363.994 43.6786C365.184 43.6786 366.294 43.9647 367.324 44.5369C368.354 45.0862 369.19 45.9445 369.831 47.1118C370.472 48.2562 370.792 49.6868 370.792 51.4034V62.3898H365.882V52.0557C365.882 50.8884 365.585 49.95 364.99 49.2404C364.395 48.5309 363.536 48.1761 362.415 48.1761C361.248 48.1761 360.332 48.5195 359.668 49.2061C359.005 49.8699 358.673 50.7968 358.673 51.987V62.3898H353.763V44.1936Z" fill="#36364C"/>
<path d="M377.26 56.3816L381.723 55.3516C382.044 56.496 382.616 57.3773 383.44 57.9952C384.287 58.5903 385.351 58.8879 386.633 58.8879C387.777 58.8879 388.647 58.7506 389.242 58.4759C389.86 58.2012 390.169 57.8121 390.169 57.3086C390.169 56.7364 389.86 56.3015 389.242 56.0039C388.624 55.6835 387.491 55.3631 385.843 55.0426C383.142 54.5391 381.208 53.841 380.041 52.9484C378.896 52.0557 378.324 50.8312 378.324 49.2748C378.324 48.1761 378.645 47.2034 379.286 46.3565C379.926 45.5096 380.819 44.8573 381.963 44.3996C383.131 43.9189 384.458 43.6786 385.946 43.6786C387.983 43.6786 389.791 44.1821 391.371 45.1892C392.95 46.1963 394.014 47.5353 394.564 49.2061L390.341 50.5794C389.997 49.6639 389.437 48.9543 388.658 48.4508C387.903 47.9472 386.987 47.6955 385.912 47.6955C385.019 47.6955 384.31 47.8443 383.783 48.1418C383.257 48.4165 382.993 48.8056 382.993 49.3091C382.993 49.7669 383.28 50.1445 383.852 50.4421C384.447 50.7167 385.511 50.9914 387.045 51.2661C389.837 51.7925 391.828 52.5249 393.019 53.4633C394.232 54.3789 394.838 55.6606 394.838 57.3086C394.838 58.4301 394.495 59.4143 393.808 60.2612C393.144 61.1081 392.183 61.7604 390.924 62.2181C389.688 62.6759 388.258 62.9048 386.633 62.9048C384.161 62.9048 382.101 62.3326 380.453 61.1882C378.828 60.0437 377.763 58.4416 377.26 56.3816Z" fill="#36364C"/>
<path d="M400.654 53.326C400.654 51.4263 401.043 49.744 401.821 48.2791C402.599 46.8143 403.687 45.6813 405.083 44.8802C406.479 44.0791 408.093 43.6786 409.924 43.6786C411.686 43.6786 413.254 44.0906 414.627 44.9145C416.023 45.7385 417.111 46.8944 417.889 48.3821C418.667 49.8699 419.056 51.5636 419.056 53.4633V54.9053H405.563C405.632 56.0497 406.067 56.9767 406.868 57.6862C407.669 58.3958 408.722 58.7506 410.027 58.7506C410.942 58.7506 411.789 58.556 412.567 58.1669C413.345 57.7549 414.192 57.0568 415.108 56.0726L418.163 59.1969C417.111 60.3642 415.897 61.2797 414.524 61.9435C413.151 62.5843 411.652 62.9048 410.027 62.9048C408.173 62.9048 406.536 62.5042 405.117 61.7031C403.698 60.9021 402.599 59.7805 401.821 58.3386C401.043 56.8737 400.654 55.2029 400.654 53.326ZM414.112 51.3347C414.021 50.3276 413.574 49.4922 412.773 48.8285C411.995 48.1647 411.045 47.8328 409.924 47.8328C408.756 47.8328 407.795 48.1532 407.04 48.7941C406.284 49.435 405.815 50.2819 405.632 51.3347H414.112Z" fill="#36364C"/>
<path d="M425.387 44.1936H430.296V45.9102H430.365C431.097 45.1778 431.887 44.6284 432.734 44.2622C433.581 43.8731 434.542 43.6786 435.618 43.6786C436.808 43.6786 437.918 43.9647 438.948 44.5369C439.978 45.0862 440.813 45.9445 441.454 47.1118C442.095 48.2562 442.416 49.6868 442.416 51.4034V62.3898H437.506V52.0557C437.506 50.8884 437.208 49.95 436.613 49.2404C436.018 48.5309 435.16 48.1761 434.038 48.1761C432.871 48.1761 431.956 48.5195 431.292 49.2061C430.628 49.8699 430.296 50.7968 430.296 51.987V62.3898H425.387V44.1936Z" fill="#36364C"/>
<path d="M448.883 56.3816L453.347 55.3516C453.667 56.496 454.239 57.3773 455.063 57.9952C455.91 58.5903 456.975 58.8879 458.256 58.8879C459.401 58.8879 460.27 58.7506 460.866 58.4759C461.484 58.2012 461.793 57.8121 461.793 57.3086C461.793 56.7364 461.484 56.3015 460.866 56.0039C460.248 55.6835 459.115 55.3631 457.467 55.0426C454.766 54.5391 452.832 53.841 451.664 52.9484C450.52 52.0557 449.948 50.8312 449.948 49.2748C449.948 48.1761 450.268 47.2034 450.909 46.3565C451.55 45.5096 452.443 44.8573 453.587 44.3996C454.754 43.9189 456.082 43.6786 457.57 43.6786C459.607 43.6786 461.415 44.1821 462.994 45.1892C464.573 46.1963 465.638 47.5353 466.187 49.2061L461.964 50.5794C461.621 49.6639 461.06 48.9543 460.282 48.4508C459.527 47.9472 458.611 47.6955 457.535 47.6955C456.643 47.6955 455.933 47.8443 455.407 48.1418C454.88 48.4165 454.617 48.8056 454.617 49.3091C454.617 49.7669 454.903 50.1445 455.475 50.4421C456.07 50.7167 457.135 50.9914 458.668 51.2661C461.461 51.7925 463.452 52.5249 464.642 53.4633C465.855 54.3789 466.462 55.6606 466.462 57.3086C466.462 58.4301 466.118 59.4143 465.432 60.2612C464.768 61.1081 463.807 61.7604 462.548 62.2181C461.312 62.6759 459.881 62.9048 458.256 62.9048C455.784 62.9048 453.724 62.3326 452.076 61.1882C450.451 60.0437 449.387 58.4416 448.883 56.3816Z" fill="#36364C"/>
<path d="M473.307 56.2099V44.1936H478.217V55.077C478.217 57.2971 479.316 58.4072 481.513 58.4072C482.497 58.4072 483.275 58.1097 483.847 57.5146C484.443 56.8966 484.74 56.0841 484.74 55.077V44.1936H489.65V62.3898H484.946V60.7762H484.877C484.374 61.417 483.676 61.932 482.783 62.3211C481.913 62.7102 480.998 62.9048 480.036 62.9048C477.885 62.9048 476.226 62.3211 475.058 61.1538C473.891 59.9636 473.307 58.3157 473.307 56.2099Z" fill="#36364C"/>
<path d="M496.633 56.3816L501.096 55.3516C501.416 56.496 501.988 57.3773 502.812 57.9952C503.659 58.5903 504.724 58.8879 506.005 58.8879C507.15 58.8879 508.019 58.7506 508.615 58.4759C509.233 58.2012 509.542 57.8121 509.542 57.3086C509.542 56.7364 509.233 56.3015 508.615 56.0039C507.997 55.6835 506.864 55.3631 505.216 55.0426C502.515 54.5391 500.581 53.841 499.413 52.9484C498.269 52.0557 497.697 50.8312 497.697 49.2748C497.697 48.1761 498.017 47.2034 498.658 46.3565C499.299 45.5096 500.192 44.8573 501.336 44.3996C502.503 43.9189 503.831 43.6786 505.319 43.6786C507.356 43.6786 509.164 44.1821 510.743 45.1892C512.322 46.1963 513.387 47.5353 513.936 49.2061L509.713 50.5794C509.37 49.6639 508.809 48.9543 508.031 48.4508C507.276 47.9472 506.36 47.6955 505.284 47.6955C504.392 47.6955 503.682 47.8443 503.156 48.1418C502.629 48.4165 502.366 48.8056 502.366 49.3091C502.366 49.7669 502.652 50.1445 503.224 50.4421C503.819 50.7167 504.884 50.9914 506.417 51.2661C509.21 51.7925 511.201 52.5249 512.391 53.4633C513.604 54.3789 514.211 55.6606 514.211 57.3086C514.211 58.4301 513.867 59.4143 513.181 60.2612C512.517 61.1081 511.556 61.7604 510.297 62.2181C509.061 62.6759 507.63 62.9048 506.005 62.9048C503.533 62.9048 501.473 62.3326 499.825 61.1882C498.2 60.0437 497.136 58.4416 496.633 56.3816Z" fill="#36364C"/>
</svg>
