<svg width="514" height="75" viewBox="0 0 514 75" fill="none" xmlns="http://www.w3.org/2000/svg">
<path d="M22.0788 56.233V74.1054L0.46875 42.4172L22.0788 56.233Z" fill="#929191"/>
<path d="M43.6896 42.4172L22.0781 74.1054V56.233L43.6896 42.4172Z" fill="#7C7C7C"/>
<path d="M43.6896 37.9523L22.0781 25.6248V51.7696L43.6896 37.9523Z" fill="#808080"/>
<path d="M43.6896 37.9525L22.0781 0.290527V25.625L43.6896 37.9525Z" fill="#A9A9A9"/>
<path d="M22.0788 0.290527V25.625L0.46875 37.9525L22.0788 0.290527Z" fill="#E3E3E3"/>
<path d="M22.0788 25.6248V51.7696L0.46875 37.9523L22.0788 25.6248Z" fill="#969696"/>
<path d="M65.6191 19.527C65.6191 18.1024 65.9109 16.8409 66.4945 15.7424C67.0781 14.6439 67.8933 13.7943 68.9403 13.1936C69.9873 12.5928 71.1974 12.2925 72.5705 12.2925C73.8921 12.2925 75.0678 12.6014 76.0976 13.2193C77.1446 13.8372 77.9599 14.704 78.5435 15.8196C79.1271 16.9353 79.4188 18.2054 79.4188 19.63V20.7113H69.3008C69.3523 21.5695 69.6784 22.2647 70.2791 22.7967C70.8799 23.3288 71.6694 23.5948 72.6477 23.5948C73.3343 23.5948 73.9693 23.449 74.5529 23.1572C75.1365 22.8482 75.7715 22.3247 76.4581 21.5867L78.7495 23.9295C77.9599 24.8049 77.0502 25.4914 76.0204 25.9892C74.9906 26.4698 73.8664 26.7101 72.6477 26.7101C71.2575 26.7101 70.0302 26.4097 68.9661 25.809C67.9019 25.2082 67.0781 24.3672 66.4945 23.2859C65.9109 22.1874 65.6191 20.9345 65.6191 19.527ZM75.7115 18.0338C75.6428 17.2786 75.3081 16.6521 74.7074 16.1543C74.1238 15.6566 73.4115 15.4077 72.5705 15.4077C71.6951 15.4077 70.9743 15.648 70.4078 16.1286C69.8414 16.6092 69.4896 17.2442 69.3523 18.0338H75.7115Z" fill="#989898"/>
<path d="M91.3234 15.9741V21.458C91.3234 21.9214 91.4264 22.2561 91.6324 22.462C91.8555 22.668 92.2159 22.771 92.7137 22.771H95.8289V26.3239H92.379C90.8686 26.3239 89.7014 25.972 88.8776 25.2683C88.0537 24.5474 87.6418 23.5262 87.6418 22.2046V15.9741H84.2948V12.6787H87.6418V9.20299H91.3234V12.6787H96.6785V15.9741H91.3234Z" fill="#989898"/>
<path d="M102.069 7.52952H105.751V13.9402H105.803C106.764 12.8417 108.077 12.2925 109.742 12.2925C110.737 12.2925 111.621 12.5328 112.393 13.0134C113.166 13.4939 113.767 14.1719 114.196 15.0473C114.625 15.9226 114.839 16.9353 114.839 18.0853V26.3239H111.158V18.5744C111.158 17.6648 110.926 16.9525 110.463 16.4375C109.999 15.9226 109.364 15.6652 108.557 15.6652C107.682 15.6652 106.995 15.9226 106.498 16.4375C106 16.9353 105.751 17.6304 105.751 18.5229V26.3239H102.069V7.52952Z" fill="#989898"/>
<path d="M119.329 19.527C119.329 18.1024 119.621 16.8409 120.204 15.7424C120.788 14.6439 121.603 13.7943 122.65 13.1936C123.697 12.5928 124.907 12.2925 126.28 12.2925C127.602 12.2925 128.778 12.6014 129.808 13.2193C130.855 13.8372 131.67 14.704 132.253 15.8196C132.837 16.9353 133.129 18.2054 133.129 19.63V20.7113H123.011C123.062 21.5695 123.388 22.2647 123.989 22.7967C124.59 23.3288 125.379 23.5948 126.358 23.5948C127.044 23.5948 127.679 23.449 128.263 23.1572C128.846 22.8482 129.482 22.3247 130.168 21.5867L132.459 23.9295C131.67 24.8049 130.76 25.4914 129.73 25.9892C128.701 26.4698 127.576 26.7101 126.358 26.7101C124.967 26.7101 123.74 26.4097 122.676 25.809C121.612 25.2082 120.788 24.3672 120.204 23.2859C119.621 22.1874 119.329 20.9345 119.329 19.527ZM129.421 18.0338C129.353 17.2786 129.018 16.6521 128.417 16.1543C127.834 15.6566 127.122 15.4077 126.28 15.4077C125.405 15.4077 124.684 15.648 124.118 16.1286C123.551 16.6092 123.2 17.2442 123.062 18.0338H129.421Z" fill="#989898"/>
<path d="M138.88 12.6787H142.407V13.9402H142.459C143.042 13.3566 143.643 12.9361 144.261 12.6787C144.896 12.4212 145.617 12.2925 146.424 12.2925C147.608 12.2925 148.629 12.6443 149.487 13.3481C150.346 14.0346 150.946 14.9786 151.29 16.1801L147.84 17.3129C147.445 16.1972 146.63 15.6394 145.394 15.6394C144.467 15.6394 143.763 15.914 143.283 16.4633C142.802 16.9954 142.562 17.7334 142.562 18.6774V26.3239H138.88V12.6787Z" fill="#989898"/>
<path d="M155.136 19.527C155.136 18.1024 155.428 16.8409 156.011 15.7424C156.595 14.6439 157.41 13.7943 158.457 13.1936C159.504 12.5928 160.714 12.2925 162.087 12.2925C163.409 12.2925 164.584 12.6014 165.614 13.2193C166.661 13.8372 167.477 14.704 168.06 15.8196C168.644 16.9353 168.936 18.2054 168.936 19.63V20.7113H158.817C158.869 21.5695 159.195 22.2647 159.796 22.7967C160.397 23.3288 161.186 23.5948 162.164 23.5948C162.851 23.5948 163.486 23.449 164.07 23.1572C164.653 22.8482 165.288 22.3247 165.975 21.5867L168.266 23.9295C167.477 24.8049 166.567 25.4914 165.537 25.9892C164.507 26.4698 163.383 26.7101 162.164 26.7101C160.774 26.7101 159.547 26.4097 158.483 25.809C157.419 25.2082 156.595 24.3672 156.011 23.2859C155.428 22.1874 155.136 20.9345 155.136 19.527ZM165.228 18.0338C165.159 17.2786 164.825 16.6521 164.224 16.1543C163.64 15.6566 162.928 15.4077 162.087 15.4077C161.212 15.4077 160.491 15.648 159.925 16.1286C159.358 16.6092 159.006 17.2442 158.869 18.0338H165.228Z" fill="#989898"/>
<path d="M173.812 21.6897V12.6787H177.493V20.8401C177.493 22.5049 178.317 23.3374 179.965 23.3374C180.703 23.3374 181.286 23.1143 181.715 22.668C182.162 22.2046 182.385 21.5953 182.385 20.8401V12.6787H186.066V26.3239H182.539V25.1138H182.488C182.11 25.5944 181.587 25.9806 180.917 26.2724C180.265 26.5642 179.579 26.7101 178.858 26.7101C177.244 26.7101 176 26.2724 175.125 25.397C174.249 24.5045 173.812 23.2687 173.812 21.6897Z" fill="#989898"/>
<path d="M190.556 12.6787H193.8V13.863H193.852C194.144 13.3995 194.513 13.0477 194.959 12.8074C195.422 12.5499 195.929 12.4212 196.478 12.4212C197.559 12.4212 198.426 12.9275 199.078 13.9402H199.13C199.816 12.9275 200.76 12.4212 201.962 12.4212C202.957 12.4212 203.764 12.7731 204.382 13.4768C205 14.1805 205.309 15.0988 205.309 16.2316V26.3239H201.91V16.8752C201.91 16.4804 201.807 16.1801 201.601 15.9741C201.395 15.7681 201.103 15.6652 200.726 15.6652C200.365 15.6652 200.074 15.7853 199.85 16.0256C199.645 16.2487 199.542 16.5577 199.542 16.9525V26.3239H196.323V16.8752C196.323 16.4976 196.22 16.2058 196.014 15.9999C195.826 15.7767 195.551 15.6652 195.191 15.6652C194.813 15.6652 194.513 15.7853 194.289 16.0256C194.066 16.2487 193.955 16.5577 193.955 16.9525V26.3239H190.556V12.6787Z" fill="#989898"/>
<path d="M230.868 17.4931H227.264V14.1977H230.868V12.1895C230.868 10.988 231.263 10.044 232.053 9.35746C232.859 8.65375 233.967 8.30189 235.374 8.30189H239.339V11.5716H235.812C235.451 11.5716 235.177 11.666 234.988 11.8548C234.799 12.0436 234.705 12.3096 234.705 12.6529V14.1977H240.163V17.4931H234.705V26.3239H230.868V17.4931Z" fill="#989898"/>
<path d="M244.652 19.5013C244.652 18.0938 244.944 16.8495 245.528 15.7681C246.111 14.6697 246.927 13.8201 247.974 13.2193C249.038 12.6014 250.248 12.2925 251.604 12.2925C252.977 12.2925 254.187 12.6014 255.234 13.2193C256.298 13.8201 257.122 14.6697 257.706 15.7681C258.289 16.8495 258.581 18.0938 258.581 19.5013C258.581 20.9087 258.289 22.1617 257.706 23.2602C257.122 24.3415 256.298 25.1911 255.234 25.809C254.187 26.4097 252.977 26.7101 251.604 26.7101C250.248 26.7101 249.038 26.4097 247.974 25.809C246.927 25.1911 246.111 24.3415 245.528 23.2602C244.944 22.1617 244.652 20.9087 244.652 19.5013ZM254.899 19.5013C254.899 18.2998 254.607 17.3644 254.024 16.695C253.458 16.0084 252.651 15.6652 251.604 15.6652C250.574 15.6652 249.767 16.0084 249.184 16.695C248.617 17.3644 248.334 18.2998 248.334 19.5013C248.334 20.7027 248.617 21.6468 249.184 22.3333C249.767 23.0027 250.574 23.3374 251.604 23.3374C252.634 23.3374 253.44 22.9941 254.024 22.3076C254.607 21.621 254.899 20.6856 254.899 19.5013Z" fill="#989898"/>
<path d="M263.328 21.6897V12.6787H267.01V20.8401C267.01 22.5049 267.834 23.3374 269.481 23.3374C270.219 23.3374 270.803 23.1143 271.232 22.668C271.678 22.2046 271.902 21.5953 271.902 20.8401V12.6787H275.583V26.3239H272.056V25.1138H272.004C271.627 25.5944 271.103 25.9806 270.434 26.2724C269.782 26.5642 269.095 26.7101 268.374 26.7101C266.761 26.7101 265.517 26.2724 264.641 25.397C263.766 24.5045 263.328 23.2687 263.328 21.6897Z" fill="#989898"/>
<path d="M281.103 12.6787H284.784V13.9659H284.836C285.385 13.4167 285.977 13.0048 286.612 12.7302C287.247 12.4384 287.968 12.2925 288.775 12.2925C289.668 12.2925 290.5 12.507 291.272 12.9361C292.045 13.3481 292.671 13.9917 293.152 14.867C293.632 15.7252 293.873 16.798 293.873 18.0853V26.3239H290.191V18.5744C290.191 17.6991 289.968 16.9954 289.522 16.4633C289.075 15.9312 288.432 15.6652 287.591 15.6652C286.715 15.6652 286.029 15.9226 285.531 16.4375C285.033 16.9353 284.784 17.6304 284.784 18.5229V26.3239H281.103V12.6787Z" fill="#989898"/>
<path d="M298.079 19.5013C298.079 18.1282 298.345 16.8924 298.877 15.7939C299.409 14.6954 300.156 13.8372 301.117 13.2193C302.078 12.6014 303.168 12.2925 304.387 12.2925C305.932 12.2925 307.142 12.7044 308.017 13.5283H308.069V7.52952H311.75V26.3239H308.352V25.1396H308.3C307.288 26.1866 305.966 26.7101 304.335 26.7101C303.134 26.7101 302.053 26.4097 301.092 25.809C300.148 25.2082 299.409 24.3672 298.877 23.2859C298.345 22.1874 298.079 20.9259 298.079 19.5013ZM308.069 20.3766V18.6002C308.069 18.0853 307.931 17.6047 307.657 17.1584C307.382 16.7122 306.996 16.3517 306.498 16.0771C306.018 15.8025 305.477 15.6652 304.876 15.6652C303.915 15.6652 303.151 16.017 302.585 16.7207C302.036 17.4073 301.761 18.3341 301.761 19.5013C301.761 20.6513 302.044 21.5781 302.611 22.2818C303.177 22.9855 303.924 23.3374 304.85 23.3374C305.777 23.3374 306.541 23.0542 307.142 22.4878C307.76 21.9042 308.069 21.2005 308.069 20.3766Z" fill="#989898"/>
<path d="M317.115 22.668C317.115 21.3979 317.545 20.411 318.403 19.7072C319.278 19.0035 320.728 18.4886 322.754 18.1625C323.818 17.9909 324.539 17.8021 324.916 17.5961C325.311 17.373 325.509 17.0812 325.509 16.7207C325.509 16.3088 325.32 15.9827 324.942 15.7424C324.565 15.5021 324.05 15.382 323.397 15.382C322.659 15.382 322.016 15.6051 321.466 16.0514C320.934 16.4976 320.591 17.0898 320.437 17.8278L317.012 17.0554C317.184 16.1286 317.57 15.3047 318.171 14.5838C318.772 13.863 319.527 13.3051 320.437 12.9104C321.346 12.4984 322.333 12.2925 323.397 12.2925C325.148 12.2925 326.547 12.7816 327.594 13.76C328.641 14.7383 329.164 16.0428 329.164 17.6733V26.3239H325.869V24.8049H325.817C325.423 25.4056 324.865 25.8776 324.144 26.2209C323.44 26.547 322.642 26.7101 321.75 26.7101C320.857 26.7101 320.059 26.5384 319.355 26.1952C318.652 25.8519 318.102 25.3713 317.708 24.7534C317.313 24.1355 317.115 23.4404 317.115 22.668ZM325.663 21.252V19.7072H325.612C325.457 19.9647 325.2 20.1707 324.839 20.3251C324.479 20.4796 323.912 20.6341 323.14 20.7886C322.179 20.9945 321.518 21.2177 321.158 21.458C320.797 21.6811 320.617 21.9986 320.617 22.4105C320.617 22.8053 320.771 23.1057 321.08 23.3116C321.406 23.5176 321.87 23.6206 322.471 23.6206C323.02 23.6206 323.543 23.5176 324.041 23.3116C324.539 23.0885 324.934 22.7967 325.225 22.4363C325.517 22.0587 325.663 21.6639 325.663 21.252Z" fill="#989898"/>
<path d="M341.97 15.9741V21.458C341.97 21.9214 342.073 22.2561 342.279 22.462C342.502 22.668 342.863 22.771 343.36 22.771H346.476V26.3239H343.026C341.515 26.3239 340.348 25.972 339.524 25.2683C338.7 24.5474 338.288 23.5262 338.288 22.2046V15.9741H334.941V12.6787H338.288V9.20299H341.97V12.6787H347.325V15.9741H341.97Z" fill="#989898"/>
<path d="M365.743 22.9512V26.3239H352.33V22.9512H357.196V16.0514H352.587V12.6787H360.878V22.9512H365.743ZM357.119 6.91162H360.903V10.5418H357.119V6.91162Z" fill="#989898"/>
<path d="M369.976 19.5013C369.976 18.0938 370.268 16.8495 370.851 15.7681C371.435 14.6697 372.25 13.8201 373.297 13.2193C374.361 12.6014 375.571 12.2925 376.927 12.2925C378.3 12.2925 379.51 12.6014 380.557 13.2193C381.621 13.8201 382.445 14.6697 383.029 15.7681C383.612 16.8495 383.904 18.0938 383.904 19.5013C383.904 20.9087 383.612 22.1617 383.029 23.2602C382.445 24.3415 381.621 25.1911 380.557 25.809C379.51 26.4097 378.3 26.7101 376.927 26.7101C375.571 26.7101 374.361 26.4097 373.297 25.809C372.25 25.1911 371.435 24.3415 370.851 23.2602C370.268 22.1617 369.976 20.9087 369.976 19.5013ZM380.223 19.5013C380.223 18.2998 379.931 17.3644 379.347 16.695C378.781 16.0084 377.974 15.6652 376.927 15.6652C375.897 15.6652 375.091 16.0084 374.507 16.695C373.941 17.3644 373.657 18.2998 373.657 19.5013C373.657 20.7027 373.941 21.6468 374.507 22.3333C375.091 23.0027 375.897 23.3374 376.927 23.3374C377.957 23.3374 378.764 22.9941 379.347 22.3076C379.931 21.621 380.223 20.6856 380.223 19.5013Z" fill="#989898"/>
<path d="M388.523 12.6787H392.204V13.9659H392.256C392.805 13.4167 393.397 13.0048 394.032 12.7302C394.667 12.4384 395.388 12.2925 396.195 12.2925C397.088 12.2925 397.92 12.507 398.692 12.9361C399.465 13.3481 400.091 13.9917 400.572 14.867C401.052 15.7252 401.293 16.798 401.293 18.0853V26.3239H397.611V18.5744C397.611 17.6991 397.388 16.9954 396.942 16.4633C396.495 15.9312 395.852 15.6652 395.011 15.6652C394.135 15.6652 393.449 15.9226 392.951 16.4375C392.453 16.9353 392.204 17.6304 392.204 18.5229V26.3239H388.523V12.6787Z" fill="#989898"/>
<path d="M65.7832 54.3016L70.7271 53.2716C71.0246 55.0798 71.574 56.3501 72.375 57.0825C73.199 57.815 74.4464 58.1812 76.1173 58.1812C77.3304 58.1812 78.2574 57.9866 78.8982 57.5975C79.562 57.1855 79.8939 56.5904 79.8939 55.8122C79.8939 54.9883 79.5162 54.2902 78.7609 53.718C78.0285 53.1457 76.6895 52.5506 74.744 51.9327C71.9287 51.0629 69.9031 50.0558 68.6671 48.9114C67.4541 47.767 66.8475 46.2907 66.8475 44.4825C66.8475 43.155 67.1908 41.9877 67.8775 40.9806C68.587 39.9506 69.5712 39.1495 70.8301 38.5773C72.1118 38.0051 73.5652 37.719 75.1903 37.719C77.5936 37.719 79.5849 38.3484 81.1642 39.6073C82.7664 40.8433 83.8307 42.5599 84.3571 44.7572L79.4132 45.8558C79.0699 44.6198 78.5549 43.7272 77.8683 43.1779C77.2045 42.6057 76.3118 42.3196 75.1903 42.3196C74.1832 42.3196 73.3821 42.5255 72.787 42.9375C72.1919 43.3495 71.8944 43.876 71.8944 44.5168C71.8944 45.089 72.2034 45.5926 72.8214 46.0275C73.4394 46.4623 74.6067 46.9544 76.3233 47.5038C79.4361 48.5109 81.6563 49.6553 82.9838 50.937C84.3342 52.1959 85.0094 53.8324 85.0094 55.8466C85.0094 57.2428 84.6432 58.4673 83.9108 59.5201C83.1784 60.573 82.1369 61.3856 80.7865 61.9578C79.4361 62.5071 77.8568 62.7817 76.0486 62.7817C73.1418 62.7817 70.8186 62.0493 69.0791 60.5845C67.3396 59.1196 66.241 57.0253 65.7832 54.3016Z" fill="#444444"/>
<path d="M100.369 48.4651V55.7779C100.369 56.3959 100.507 56.8422 100.781 57.1169C101.079 57.3915 101.56 57.5289 102.223 57.5289H106.378V62.2668H101.777C99.7629 62.2668 98.2065 61.7975 97.1079 60.8591C96.0092 59.8978 95.4599 58.536 95.4599 56.7735V48.4651H90.9967V44.0705H95.4599V39.4356H100.369V44.0705H107.511V48.4651H100.369Z" fill="#444444"/>
<path d="M114.974 57.3915C114.974 55.6978 115.546 54.3817 116.691 53.4433C117.858 52.5049 119.792 51.8182 122.493 51.3833C123.912 51.1545 124.873 50.9027 125.377 50.628C125.903 50.3305 126.167 49.9414 126.167 49.4607C126.167 48.9114 125.915 48.4765 125.411 48.1561C124.908 47.8356 124.221 47.6754 123.351 47.6754C122.367 47.6754 121.509 47.973 120.776 48.5681C120.067 49.1632 119.609 49.9528 119.403 50.937L114.837 49.907C115.066 48.6711 115.581 47.5724 116.382 46.6111C117.183 45.6498 118.19 44.9059 119.403 44.3795C120.616 43.8302 121.932 43.5555 123.351 43.5555C125.686 43.5555 127.551 44.2078 128.948 45.5125C130.344 46.8171 131.042 48.5566 131.042 50.731V62.2668H126.647V60.2411H126.579C126.052 61.0422 125.308 61.6717 124.347 62.1294C123.409 62.5643 122.344 62.7817 121.154 62.7817C119.964 62.7817 118.9 62.5529 117.961 62.0951C117.023 61.6373 116.29 60.9964 115.764 60.1725C115.237 59.3485 114.974 58.4215 114.974 57.3915ZM126.373 55.5032V53.4433H126.304C126.098 53.7866 125.755 54.0613 125.274 54.2673C124.793 54.4733 124.038 54.6793 123.008 54.8853C121.726 55.1599 120.845 55.4575 120.364 55.7779C119.884 56.0755 119.643 56.4989 119.643 57.0482C119.643 57.5746 119.849 57.9752 120.261 58.2498C120.696 58.5245 121.314 58.6618 122.115 58.6618C122.848 58.6618 123.546 58.5245 124.21 58.2498C124.873 57.9523 125.4 57.5632 125.789 57.0825C126.178 56.579 126.373 56.0526 126.373 55.5032Z" fill="#444444"/>
<path d="M148.118 48.4651V55.7779C148.118 56.3959 148.256 56.8422 148.53 57.1169C148.828 57.3915 149.309 57.5289 149.972 57.5289H154.127V62.2668H149.526C147.512 62.2668 145.956 61.7975 144.857 60.8591C143.758 59.8978 143.209 58.536 143.209 56.7735V48.4651H138.746V44.0705H143.209V39.4356H148.118V44.0705H155.26V48.4651H148.118Z" fill="#444444"/>
<path d="M161.59 53.203C161.59 51.3032 161.979 49.6209 162.758 48.1561C163.536 46.6912 164.623 45.5583 166.019 44.7572C167.415 43.9561 169.029 43.5555 170.86 43.5555C172.622 43.5555 174.19 43.9675 175.564 44.7915C176.96 45.6155 178.047 46.7713 178.825 48.2591C179.603 49.7468 179.993 51.4406 179.993 53.3403V54.7823H166.5C166.568 55.9267 167.003 56.8537 167.804 57.5632C168.606 58.2727 169.658 58.6275 170.963 58.6275C171.879 58.6275 172.725 58.433 173.504 58.0439C174.282 57.6319 175.129 56.9338 176.044 55.9496L179.1 59.0738C178.047 60.2411 176.834 61.1567 175.461 61.8204C174.087 62.4613 172.588 62.7817 170.963 62.7817C169.109 62.7817 167.473 62.3812 166.053 61.5801C164.634 60.779 163.536 59.6575 162.758 58.2155C161.979 56.7507 161.59 55.0798 161.59 53.203ZM175.049 51.2117C174.957 50.2046 174.511 49.3692 173.71 48.7054C172.931 48.0416 171.982 47.7098 170.86 47.7098C169.693 47.7098 168.731 48.0302 167.976 48.6711C167.221 49.3119 166.752 50.1588 166.568 51.2117H175.049Z" fill="#444444"/>
<path d="M203.695 57.7692V62.2668H185.808V57.7692H192.297V42.7315H186.151V38.234H197.207V57.7692H203.695Z" fill="#444444"/>
<path d="M209.339 53.203C209.339 51.3032 209.728 49.6209 210.507 48.1561C211.285 46.6912 212.372 45.5583 213.768 44.7572C215.164 43.9561 216.778 43.5555 218.609 43.5555C220.371 43.5555 221.939 43.9675 223.313 44.7915C224.709 45.6155 225.796 46.7713 226.574 48.2591C227.352 49.7468 227.742 51.4406 227.742 53.3403V54.7823H214.249C214.318 55.9267 214.752 56.8537 215.553 57.5632C216.355 58.2727 217.407 58.6275 218.712 58.6275C219.628 58.6275 220.474 58.433 221.253 58.0439C222.031 57.6319 222.878 56.9338 223.793 55.9496L226.849 59.0738C225.796 60.2411 224.583 61.1567 223.21 61.8204C221.836 62.4613 220.337 62.7817 218.712 62.7817C216.858 62.7817 215.222 62.3812 213.803 61.5801C212.383 60.779 211.285 59.6575 210.507 58.2155C209.728 56.7507 209.339 55.0798 209.339 53.203ZM222.798 51.2117C222.706 50.2046 222.26 49.3692 221.459 48.7054C220.68 48.0416 219.731 47.7098 218.609 47.7098C217.442 47.7098 216.48 48.0302 215.725 48.6711C214.97 49.3119 214.501 50.1588 214.318 51.2117H222.798Z" fill="#444444"/>
<path d="M233.694 56.2586L238.158 55.2286C238.478 56.373 239.05 57.2542 239.874 57.8722C240.721 58.4673 241.786 58.7648 243.067 58.7648C244.212 58.7648 245.081 58.6275 245.677 58.3528C246.295 58.0782 246.604 57.6891 246.604 57.1855C246.604 56.6133 246.295 56.1784 245.677 55.8809C245.059 55.5605 243.926 55.24 242.278 54.9196C239.577 54.416 237.643 53.718 236.475 52.8253C235.331 51.9327 234.759 50.7081 234.759 49.1517C234.759 48.0531 235.079 47.0803 235.72 46.2335C236.361 45.3866 237.254 44.7343 238.398 44.2765C239.565 43.7959 240.893 43.5555 242.381 43.5555C244.418 43.5555 246.226 44.0591 247.805 45.0662C249.384 46.0732 250.449 47.4122 250.998 49.0831L246.775 50.4564C246.432 49.5408 245.871 48.8313 245.093 48.3277C244.338 47.8242 243.422 47.5724 242.346 47.5724C241.454 47.5724 240.744 47.7212 240.218 48.0188C239.691 48.2934 239.428 48.6825 239.428 49.1861C239.428 49.6438 239.714 50.0215 240.286 50.319C240.881 50.5937 241.946 50.8684 243.479 51.143C246.272 51.6694 248.263 52.4019 249.453 53.3403C250.666 54.2558 251.273 55.5376 251.273 57.1855C251.273 58.3071 250.929 59.2913 250.243 60.1381C249.579 60.985 248.618 61.6373 247.359 62.0951C246.123 62.5529 244.692 62.7817 243.067 62.7817C240.595 62.7817 238.535 62.2095 236.887 61.0651C235.262 59.9207 234.198 58.3185 233.694 56.2586Z" fill="#444444"/>
<path d="M257.569 56.2586L262.032 55.2286C262.353 56.373 262.925 57.2542 263.749 57.8722C264.596 58.4673 265.66 58.7648 266.942 58.7648C268.086 58.7648 268.956 58.6275 269.551 58.3528C270.169 58.0782 270.478 57.6891 270.478 57.1855C270.478 56.6133 270.169 56.1784 269.551 55.8809C268.933 55.5605 267.8 55.24 266.152 54.9196C263.451 54.416 261.517 53.718 260.35 52.8253C259.206 51.9327 258.633 50.7081 258.633 49.1517C258.633 48.0531 258.954 47.0803 259.595 46.2335C260.235 45.3866 261.128 44.7343 262.273 44.2765C263.44 43.7959 264.767 43.5555 266.255 43.5555C268.292 43.5555 270.1 44.0591 271.68 45.0662C273.259 46.0732 274.323 47.4122 274.873 49.0831L270.65 50.4564C270.306 49.5408 269.746 48.8313 268.967 48.3277C268.212 47.8242 267.297 47.5724 266.221 47.5724C265.328 47.5724 264.619 47.7212 264.092 48.0188C263.566 48.2934 263.303 48.6825 263.303 49.1861C263.303 49.6438 263.589 50.0215 264.161 50.319C264.756 50.5937 265.82 50.8684 267.354 51.143C270.146 51.6694 272.137 52.4019 273.328 53.3403C274.541 54.2558 275.147 55.5376 275.147 57.1855C275.147 58.3071 274.804 59.2913 274.117 60.1381C273.454 60.985 272.492 61.6373 271.233 62.0951C269.997 62.5529 268.567 62.7817 266.942 62.7817C264.47 62.7817 262.41 62.2095 260.762 61.0651C259.137 59.9207 258.073 58.3185 257.569 56.2586Z" fill="#444444"/>
<path d="M304.322 50.2504C304.322 47.7555 304.746 45.5583 305.593 43.6585C306.462 41.7588 307.676 40.2939 309.232 39.264C310.811 38.234 312.631 37.719 314.691 37.719C316.316 37.719 317.804 38.0852 319.154 38.8176C320.504 39.5272 321.603 40.5343 322.45 41.8389C323.32 43.1435 323.846 44.6313 324.029 46.3021L319.051 47.1261C318.799 45.6155 318.284 44.4482 317.506 43.6242C316.751 42.8002 315.812 42.3882 314.691 42.3882C313.066 42.3882 311.773 43.0863 310.811 44.4825C309.873 45.8787 309.404 47.8013 309.404 50.2504C309.404 52.6994 309.873 54.622 310.811 56.0182C311.773 57.4144 313.066 58.1125 314.691 58.1125C315.858 58.1125 316.831 57.6776 317.609 56.8079C318.387 55.9381 318.891 54.6793 319.12 53.0313L324.098 53.8553C323.892 55.6406 323.365 57.2084 322.519 58.5588C321.672 59.9093 320.562 60.9507 319.188 61.6831C317.838 62.4155 316.339 62.7817 314.691 62.7817C312.631 62.7817 310.811 62.2668 309.232 61.2368C307.676 60.2068 306.462 58.7419 305.593 56.8422C304.746 54.9425 304.322 52.7452 304.322 50.2504Z" fill="#444444"/>
<path d="M328.712 53.1686C328.712 51.2918 329.101 49.6324 329.879 48.1904C330.657 46.7256 331.745 45.5926 333.141 44.7915C334.56 43.9675 336.173 43.5555 337.982 43.5555C339.813 43.5555 341.426 43.9675 342.823 44.7915C344.242 45.5926 345.34 46.7256 346.118 48.1904C346.897 49.6324 347.286 51.2918 347.286 53.1686C347.286 55.0455 346.897 56.7163 346.118 58.1812C345.34 59.6231 344.242 60.7561 342.823 61.5801C341.426 62.3812 339.813 62.7817 337.982 62.7817C336.173 62.7817 334.56 62.3812 333.141 61.5801C331.745 60.7561 330.657 59.6231 329.879 58.1812C329.101 56.7163 328.712 55.0455 328.712 53.1686ZM342.376 53.1686C342.376 51.5664 341.987 50.319 341.209 49.4264C340.454 48.5109 339.378 48.0531 337.982 48.0531C336.608 48.0531 335.533 48.5109 334.754 49.4264C333.999 50.319 333.621 51.5664 333.621 53.1686C333.621 54.7708 333.999 56.0297 334.754 56.9452C335.533 57.8379 336.608 58.2842 337.982 58.2842C339.355 58.2842 340.431 57.8264 341.209 56.9109C341.987 55.9953 342.376 54.7479 342.376 53.1686Z" fill="#444444"/>
<path d="M353.445 44.0705H358.354V45.7871H358.423C359.155 45.0547 359.945 44.5054 360.792 44.1392C361.639 43.7501 362.6 43.5555 363.676 43.5555C364.866 43.5555 365.976 43.8416 367.006 44.4138C368.036 44.9632 368.871 45.8215 369.512 46.9888C370.153 48.1332 370.474 49.5637 370.474 51.2803V62.2668H365.564V51.9327C365.564 50.7654 365.267 49.8269 364.671 49.1174C364.076 48.4079 363.218 48.0531 362.096 48.0531C360.929 48.0531 360.014 48.3964 359.35 49.0831C358.686 49.7468 358.354 50.6738 358.354 51.864V62.2668H353.445V44.0705Z" fill="#444444"/>
<path d="M376.942 56.2586L381.405 55.2286C381.725 56.373 382.297 57.2542 383.121 57.8722C383.968 58.4673 385.033 58.7648 386.314 58.7648C387.459 58.7648 388.329 58.6275 388.924 58.3528C389.542 58.0782 389.851 57.6891 389.851 57.1855C389.851 56.6133 389.542 56.1784 388.924 55.8809C388.306 55.5605 387.173 55.24 385.525 54.9196C382.824 54.416 380.89 53.718 379.723 52.8253C378.578 51.9327 378.006 50.7081 378.006 49.1517C378.006 48.0531 378.326 47.0803 378.967 46.2335C379.608 45.3866 380.501 44.7343 381.645 44.2765C382.812 43.7959 384.14 43.5555 385.628 43.5555C387.665 43.5555 389.473 44.0591 391.052 45.0662C392.632 46.0732 393.696 47.4122 394.245 49.0831L390.022 50.4564C389.679 49.5408 389.118 48.8313 388.34 48.3277C387.585 47.8242 386.669 47.5724 385.593 47.5724C384.701 47.5724 383.991 47.7212 383.465 48.0188C382.938 48.2934 382.675 48.6825 382.675 49.1861C382.675 49.6438 382.961 50.0215 383.533 50.319C384.129 50.5937 385.193 50.8684 386.726 51.143C389.519 51.6694 391.51 52.4019 392.7 53.3403C393.913 54.2558 394.52 55.5376 394.52 57.1855C394.52 58.3071 394.176 59.2913 393.49 60.1381C392.826 60.985 391.865 61.6373 390.606 62.0951C389.37 62.5529 387.939 62.7817 386.314 62.7817C383.842 62.7817 381.782 62.2095 380.134 61.0651C378.509 59.9207 377.445 58.3185 376.942 56.2586Z" fill="#444444"/>
<path d="M400.335 53.203C400.335 51.3032 400.725 49.6209 401.503 48.1561C402.281 46.6912 403.368 45.5583 404.764 44.7572C406.161 43.9561 407.774 43.5555 409.605 43.5555C411.368 43.5555 412.935 43.9675 414.309 44.7915C415.705 45.6155 416.792 46.7713 417.57 48.2591C418.349 49.7468 418.738 51.4406 418.738 53.3403V54.7823H405.245C405.314 55.9267 405.749 56.8537 406.55 57.5632C407.351 58.2727 408.404 58.6275 409.708 58.6275C410.624 58.6275 411.471 58.433 412.249 58.0439C413.027 57.6319 413.874 56.9338 414.789 55.9496L417.845 59.0738C416.792 60.2411 415.579 61.1567 414.206 61.8204C412.832 62.4613 411.333 62.7817 409.708 62.7817C407.854 62.7817 406.218 62.3812 404.799 61.5801C403.38 60.779 402.281 59.6575 401.503 58.2155C400.725 56.7507 400.335 55.0798 400.335 53.203ZM413.794 51.2117C413.702 50.2046 413.256 49.3692 412.455 48.7054C411.677 48.0416 410.727 47.7098 409.605 47.7098C408.438 47.7098 407.477 48.0302 406.721 48.6711C405.966 49.3119 405.497 50.1588 405.314 51.2117H413.794Z" fill="#444444"/>
<path d="M425.068 44.0705H429.978V45.7871H430.046C430.779 45.0547 431.569 44.5054 432.415 44.1392C433.262 43.7501 434.224 43.5555 435.299 43.5555C436.49 43.5555 437.6 43.8416 438.63 44.4138C439.66 44.9632 440.495 45.8215 441.136 46.9888C441.777 48.1332 442.097 49.5637 442.097 51.2803V62.2668H437.188V51.9327C437.188 50.7654 436.89 49.8269 436.295 49.1174C435.7 48.4079 434.842 48.0531 433.72 48.0531C432.553 48.0531 431.637 48.3964 430.973 49.0831C430.31 49.7468 429.978 50.6738 429.978 51.864V62.2668H425.068V44.0705Z" fill="#444444"/>
<path d="M448.565 56.2586L453.028 55.2286C453.349 56.373 453.921 57.2542 454.745 57.8722C455.592 58.4673 456.656 58.7648 457.938 58.7648C459.082 58.7648 459.952 58.6275 460.547 58.3528C461.165 58.0782 461.474 57.6891 461.474 57.1855C461.474 56.6133 461.165 56.1784 460.547 55.8809C459.929 55.5605 458.796 55.24 457.148 54.9196C454.447 54.416 452.513 53.718 451.346 52.8253C450.202 51.9327 449.629 50.7081 449.629 49.1517C449.629 48.0531 449.95 47.0803 450.591 46.2335C451.232 45.3866 452.124 44.7343 453.269 44.2765C454.436 43.7959 455.764 43.5555 457.251 43.5555C459.288 43.5555 461.097 44.0591 462.676 45.0662C464.255 46.0732 465.319 47.4122 465.869 49.0831L461.646 50.4564C461.302 49.5408 460.742 48.8313 459.964 48.3277C459.208 47.8242 458.293 47.5724 457.217 47.5724C456.324 47.5724 455.615 47.7212 455.088 48.0188C454.562 48.2934 454.299 48.6825 454.299 49.1861C454.299 49.6438 454.585 50.0215 455.157 50.319C455.752 50.5937 456.816 50.8684 458.35 51.143C461.142 51.6694 463.134 52.4019 464.324 53.3403C465.537 54.2558 466.143 55.5376 466.143 57.1855C466.143 58.3071 465.8 59.2913 465.113 60.1381C464.45 60.985 463.488 61.6373 462.229 62.0951C460.993 62.5529 459.563 62.7817 457.938 62.7817C455.466 62.7817 453.406 62.2095 451.758 61.0651C450.133 59.9207 449.069 58.3185 448.565 56.2586Z" fill="#444444"/>
<path d="M472.989 56.0869V44.0705H477.899V54.9539C477.899 57.1741 478.997 58.2842 481.194 58.2842C482.179 58.2842 482.957 57.9866 483.529 57.3915C484.124 56.7735 484.422 55.961 484.422 54.9539V44.0705H489.331V62.2668H484.628V60.6531H484.559C484.055 61.294 483.357 61.809 482.465 62.1981C481.595 62.5872 480.679 62.7817 479.718 62.7817C477.567 62.7817 475.907 62.1981 474.74 61.0308C473.573 59.8406 472.989 58.1926 472.989 56.0869Z" fill="#444444"/>
<path d="M496.314 56.2586L500.777 55.2286C501.098 56.373 501.67 57.2542 502.494 57.8722C503.341 58.4673 504.405 58.7648 505.687 58.7648C506.831 58.7648 507.701 58.6275 508.296 58.3528C508.914 58.0782 509.223 57.6891 509.223 57.1855C509.223 56.6133 508.914 56.1784 508.296 55.8809C507.678 55.5605 506.545 55.24 504.897 54.9196C502.196 54.416 500.262 53.718 499.095 52.8253C497.951 51.9327 497.378 50.7081 497.378 49.1517C497.378 48.0531 497.699 47.0803 498.34 46.2335C498.981 45.3866 499.873 44.7343 501.018 44.2765C502.185 43.7959 503.513 43.5555 505 43.5555C507.037 43.5555 508.846 44.0591 510.425 45.0662C512.004 46.0732 513.068 47.4122 513.618 49.0831L509.395 50.4564C509.052 49.5408 508.491 48.8313 507.713 48.3277C506.957 47.8242 506.042 47.5724 504.966 47.5724C504.073 47.5724 503.364 47.7212 502.837 48.0188C502.311 48.2934 502.048 48.6825 502.048 49.1861C502.048 49.6438 502.334 50.0215 502.906 50.319C503.501 50.5937 504.565 50.8684 506.099 51.143C508.891 51.6694 510.883 52.4019 512.073 53.3403C513.286 54.2558 513.892 55.5376 513.892 57.1855C513.892 58.3071 513.549 59.2913 512.862 60.1381C512.199 60.985 511.237 61.6373 509.978 62.0951C508.743 62.5529 507.312 62.7817 505.687 62.7817C503.215 62.7817 501.155 62.2095 499.507 61.0651C497.882 59.9207 496.818 58.3185 496.314 56.2586Z" fill="#444444"/>
</svg>
