<svg width="515" height="75" viewBox="0 0 515 75" fill="none" xmlns="http://www.w3.org/2000/svg">
<path d="M22.3991 56.403V74.2753L0.789062 42.5872L22.3991 56.403Z" fill="white"/>
<path d="M44.0099 42.5872L22.3984 74.2753V56.403L44.0099 42.5872Z" fill="white"/>
<path d="M44.0099 38.1222L22.3984 25.7947V51.9395L44.0099 38.1222Z" fill="white"/>
<path d="M44.0099 38.1225L22.3984 0.460449V25.7949L44.0099 38.1225Z" fill="white"/>
<path d="M22.3991 0.460449V25.7949L0.789062 38.1225L22.3991 0.460449Z" fill="white"/>
<path d="M22.3991 25.7947V51.9395L0.789062 38.1222L22.3991 25.7947Z" fill="white"/>
<path d="M65.9375 19.6969C65.9375 18.2724 66.2293 17.0108 66.8129 15.9123C67.3964 14.8138 68.2117 13.9642 69.2587 13.3635C70.3057 12.7628 71.5157 12.4624 72.8888 12.4624C74.2105 12.4624 75.3862 12.7713 76.416 13.3892C77.463 14.0071 78.2783 14.8739 78.8619 15.9896C79.4454 17.1052 79.7372 18.3753 79.7372 19.7999V20.8812H69.6191C69.6706 21.7394 69.9967 22.4346 70.5975 22.9667C71.1982 23.4987 71.9877 23.7648 72.9661 23.7648C73.6526 23.7648 74.2877 23.6189 74.8713 23.3271C75.4548 23.0181 76.0899 22.4946 76.7764 21.7566L79.0678 24.0995C78.2783 24.9748 77.3686 25.6614 76.3388 26.1591C75.3089 26.6397 74.1847 26.88 72.9661 26.88C71.5758 26.88 70.3486 26.5796 69.2844 25.9789C68.2203 25.3782 67.3964 24.5371 66.8129 23.4558C66.2293 22.3573 65.9375 21.1044 65.9375 19.6969ZM76.0298 18.2037C75.9612 17.4485 75.6265 16.822 75.0257 16.3243C74.4422 15.8265 73.7299 15.5776 72.8888 15.5776C72.0135 15.5776 71.2926 15.8179 70.7262 16.2985C70.1598 16.7791 69.8079 17.4142 69.6706 18.2037H76.0298Z" fill="white"/>
<path d="M91.6418 16.144V21.6279C91.6418 22.0913 91.7448 22.426 91.9507 22.632C92.1739 22.8379 92.5343 22.9409 93.0321 22.9409H96.1473V26.4938H92.6974C91.1869 26.4938 90.0198 26.142 89.1959 25.4382C88.3721 24.7174 87.9601 23.6961 87.9601 22.3745V16.144H84.6132V12.8486H87.9601V9.37291H91.6418V12.8486H96.9969V16.144H91.6418Z" fill="white"/>
<path d="M102.388 7.69944H106.069V14.1101H106.121C107.082 13.0116 108.395 12.4624 110.06 12.4624C111.056 12.4624 111.939 12.7027 112.712 13.1833C113.484 13.6639 114.085 14.3418 114.514 15.2172C114.943 16.0925 115.158 17.1052 115.158 18.2552V26.4938H111.476V18.7444C111.476 17.8347 111.244 17.1224 110.781 16.6075C110.317 16.0925 109.682 15.8351 108.876 15.8351C108 15.8351 107.314 16.0925 106.816 16.6075C106.318 17.1052 106.069 17.8003 106.069 18.6929V26.4938H102.388V7.69944Z" fill="white"/>
<path d="M119.647 19.6969C119.647 18.2724 119.939 17.0108 120.523 15.9123C121.106 14.8138 121.922 13.9642 122.969 13.3635C124.016 12.7628 125.226 12.4624 126.599 12.4624C127.92 12.4624 129.096 12.7713 130.126 13.3892C131.173 14.0071 131.988 14.8739 132.572 15.9896C133.155 17.1052 133.447 18.3753 133.447 19.7999V20.8812H123.329C123.381 21.7394 123.707 22.4346 124.307 22.9667C124.908 23.4987 125.698 23.7648 126.676 23.7648C127.363 23.7648 127.998 23.6189 128.581 23.3271C129.165 23.0181 129.8 22.4946 130.486 21.7566L132.778 24.0995C131.988 24.9748 131.079 25.6614 130.049 26.1591C129.019 26.6397 127.895 26.88 126.676 26.88C125.286 26.88 124.059 26.5796 122.994 25.9789C121.93 25.3782 121.106 24.5371 120.523 23.4558C119.939 22.3573 119.647 21.1044 119.647 19.6969ZM129.74 18.2037C129.671 17.4485 129.336 16.822 128.736 16.3243C128.152 15.8265 127.44 15.5776 126.599 15.5776C125.723 15.5776 125.003 15.8179 124.436 16.2985C123.87 16.7791 123.518 17.4142 123.381 18.2037H129.74Z" fill="white"/>
<path d="M139.199 12.8486H142.726V14.1101H142.777C143.361 13.5266 143.962 13.106 144.579 12.8486C145.214 12.5911 145.935 12.4624 146.742 12.4624C147.926 12.4624 148.948 12.8143 149.806 13.518C150.664 14.2045 151.265 15.1485 151.608 16.35L148.158 17.4828C147.763 16.3672 146.948 15.8093 145.712 15.8093C144.785 15.8093 144.082 16.084 143.601 16.6332C143.12 17.1653 142.88 17.9033 142.88 18.8473V26.4938H139.199V12.8486Z" fill="white"/>
<path d="M155.454 19.6969C155.454 18.2724 155.746 17.0108 156.33 15.9123C156.913 14.8138 157.728 13.9642 158.775 13.3635C159.822 12.7628 161.032 12.4624 162.406 12.4624C163.727 12.4624 164.903 12.7713 165.933 13.3892C166.98 14.0071 167.795 14.8739 168.379 15.9896C168.962 17.1052 169.254 18.3753 169.254 19.7999V20.8812H159.136C159.187 21.7394 159.513 22.4346 160.114 22.9667C160.715 23.4987 161.504 23.7648 162.483 23.7648C163.169 23.7648 163.804 23.6189 164.388 23.3271C164.972 23.0181 165.607 22.4946 166.293 21.7566L168.584 24.0995C167.795 24.9748 166.885 25.6614 165.855 26.1591C164.826 26.6397 163.701 26.88 162.483 26.88C161.092 26.88 159.865 26.5796 158.801 25.9789C157.737 25.3782 156.913 24.5371 156.33 23.4558C155.746 22.3573 155.454 21.1044 155.454 19.6969ZM165.546 18.2037C165.478 17.4485 165.143 16.822 164.542 16.3243C163.959 15.8265 163.247 15.5776 162.406 15.5776C161.53 15.5776 160.809 15.8179 160.243 16.2985C159.676 16.7791 159.325 17.4142 159.187 18.2037H165.546Z" fill="white"/>
<path d="M174.13 21.8596V12.8486H177.812V21.01C177.812 22.6749 178.635 23.5073 180.283 23.5073C181.021 23.5073 181.605 23.2842 182.034 22.8379C182.48 22.3745 182.703 21.7652 182.703 21.01V12.8486H186.385V26.4938H182.858V25.2838H182.806C182.429 25.7644 181.905 26.1505 181.236 26.4423C180.583 26.7341 179.897 26.88 179.176 26.88C177.563 26.88 176.318 26.4423 175.443 25.567C174.568 24.6745 174.13 23.4387 174.13 21.8596Z" fill="white"/>
<path d="M190.875 12.8486H194.119V14.0329H194.17C194.462 13.5695 194.831 13.2176 195.277 12.9773C195.741 12.7199 196.247 12.5911 196.796 12.5911C197.877 12.5911 198.744 13.0975 199.396 14.1101H199.448C200.135 13.0975 201.079 12.5911 202.28 12.5911C203.275 12.5911 204.082 12.943 204.7 13.6467C205.318 14.3504 205.627 15.2687 205.627 16.4015V26.4938H202.229V17.0451C202.229 16.6504 202.126 16.35 201.92 16.144C201.714 15.9381 201.422 15.8351 201.044 15.8351C200.684 15.8351 200.392 15.9552 200.169 16.1955C199.963 16.4187 199.86 16.7276 199.86 17.1224V26.4938H196.642V17.0451C196.642 16.6675 196.539 16.3757 196.333 16.1698C196.144 15.9467 195.869 15.8351 195.509 15.8351C195.131 15.8351 194.831 15.9552 194.608 16.1955C194.385 16.4187 194.273 16.7276 194.273 17.1224V26.4938H190.875V12.8486Z" fill="white"/>
<path d="M231.187 17.663H227.582V14.3676H231.187V12.3594C231.187 11.1579 231.582 10.2139 232.371 9.52739C233.178 8.82367 234.285 8.47181 235.692 8.47181H239.657V11.7415H236.13C235.77 11.7415 235.495 11.8359 235.306 12.0247C235.117 12.2135 235.023 12.4796 235.023 12.8228V14.3676H240.481V17.663H235.023V26.4938H231.187V17.663Z" fill="white"/>
<path d="M244.971 19.6712C244.971 18.2638 245.263 17.0194 245.846 15.9381C246.43 14.8396 247.245 13.99 248.292 13.3892C249.356 12.7713 250.566 12.4624 251.922 12.4624C253.295 12.4624 254.505 12.7713 255.552 13.3892C256.616 13.99 257.44 14.8396 258.024 15.9381C258.607 17.0194 258.899 18.2638 258.899 19.6712C258.899 21.0786 258.607 22.3316 258.024 23.4301C257.44 24.5114 256.616 25.361 255.552 25.9789C254.505 26.5796 253.295 26.88 251.922 26.88C250.566 26.88 249.356 26.5796 248.292 25.9789C247.245 25.361 246.43 24.5114 245.846 23.4301C245.263 22.3316 244.971 21.0786 244.971 19.6712ZM255.218 19.6712C255.218 18.4697 254.926 17.5343 254.342 16.8649C253.776 16.1784 252.969 15.8351 251.922 15.8351C250.892 15.8351 250.086 16.1784 249.502 16.8649C248.936 17.5343 248.652 18.4697 248.652 19.6712C248.652 20.8727 248.936 21.8167 249.502 22.5032C250.086 23.1726 250.892 23.5073 251.922 23.5073C252.952 23.5073 253.759 23.164 254.342 22.4775C254.926 21.7909 255.218 20.8555 255.218 19.6712Z" fill="white"/>
<path d="M263.647 21.8596V12.8486H267.328V21.01C267.328 22.6749 268.152 23.5073 269.8 23.5073C270.538 23.5073 271.121 23.2842 271.55 22.8379C271.997 22.3745 272.22 21.7652 272.22 21.01V12.8486H275.902V26.4938H272.374V25.2838H272.323C271.945 25.7644 271.422 26.1505 270.752 26.4423C270.1 26.7341 269.414 26.88 268.693 26.88C267.079 26.88 265.835 26.4423 264.96 25.567C264.084 24.6745 263.647 23.4387 263.647 21.8596Z" fill="white"/>
<path d="M281.421 12.8486H285.103V14.1359H285.154C285.704 13.5866 286.296 13.1747 286.931 12.9001C287.566 12.6083 288.287 12.4624 289.093 12.4624C289.986 12.4624 290.818 12.6769 291.591 13.106C292.363 13.518 292.99 14.1616 293.47 15.037C293.951 15.8952 294.191 16.9679 294.191 18.2552V26.4938H290.509V18.7444C290.509 17.869 290.286 17.1653 289.84 16.6332C289.394 16.1011 288.75 15.8351 287.909 15.8351C287.034 15.8351 286.347 16.0925 285.849 16.6075C285.352 17.1052 285.103 17.8003 285.103 18.6929V26.4938H281.421V12.8486Z" fill="white"/>
<path d="M298.398 19.6712C298.398 18.2981 298.664 17.0623 299.196 15.9638C299.728 14.8653 300.474 14.0071 301.436 13.3892C302.397 12.7713 303.487 12.4624 304.705 12.4624C306.25 12.4624 307.46 12.8743 308.335 13.6982H308.387V7.69944H312.069V26.4938H308.67V25.3095H308.619C307.606 26.3565 306.284 26.88 304.654 26.88C303.452 26.88 302.371 26.5796 301.41 25.9789C300.466 25.3782 299.728 24.5371 299.196 23.4558C298.664 22.3573 298.398 21.0958 298.398 19.6712ZM308.387 20.5466V18.7701C308.387 18.2552 308.25 17.7746 307.975 17.3283C307.7 16.8821 307.314 16.5216 306.816 16.247C306.336 15.9724 305.795 15.8351 305.195 15.8351C304.233 15.8351 303.47 16.1869 302.903 16.8907C302.354 17.5772 302.079 18.5041 302.079 19.6712C302.079 20.8212 302.362 21.748 302.929 22.4517C303.495 23.1555 304.242 23.5073 305.169 23.5073C306.096 23.5073 306.859 23.2241 307.46 22.6577C308.078 22.0741 308.387 21.3704 308.387 20.5466Z" fill="white"/>
<path d="M317.434 22.8379C317.434 21.5678 317.863 20.5809 318.721 19.8772C319.596 19.1735 321.047 18.6585 323.072 18.3324C324.136 18.1608 324.857 17.972 325.235 17.766C325.63 17.5429 325.827 17.2511 325.827 16.8907C325.827 16.4787 325.638 16.1526 325.26 15.9123C324.883 15.672 324.368 15.5519 323.716 15.5519C322.978 15.5519 322.334 15.775 321.785 16.2213C321.253 16.6675 320.909 17.2597 320.755 17.9977L317.331 17.2254C317.502 16.2985 317.889 15.4746 318.489 14.7538C319.09 14.0329 319.845 13.4751 320.755 13.0803C321.665 12.6684 322.652 12.4624 323.716 12.4624C325.466 12.4624 326.865 12.9516 327.912 13.9299C328.959 14.9082 329.483 16.2127 329.483 17.8433V26.4938H326.187V24.9748H326.136C325.741 25.5756 325.183 26.0476 324.462 26.3908C323.759 26.7169 322.961 26.88 322.068 26.88C321.175 26.88 320.377 26.7084 319.674 26.3651C318.97 26.0218 318.421 25.5412 318.026 24.9233C317.631 24.3054 317.434 23.6103 317.434 22.8379ZM325.981 21.4219V19.8772H325.93C325.775 20.1346 325.518 20.3406 325.158 20.4951C324.797 20.6495 324.231 20.804 323.458 20.9585C322.497 21.1645 321.836 21.3876 321.476 21.6279C321.115 21.851 320.935 22.1685 320.935 22.5805C320.935 22.9752 321.09 23.2756 321.399 23.4816C321.725 23.6875 322.188 23.7905 322.789 23.7905C323.338 23.7905 323.862 23.6875 324.359 23.4816C324.857 23.2584 325.252 22.9667 325.544 22.6062C325.835 22.2286 325.981 21.8338 325.981 21.4219Z" fill="white"/>
<path d="M342.288 16.144V21.6279C342.288 22.0913 342.391 22.426 342.597 22.632C342.821 22.8379 343.181 22.9409 343.679 22.9409H346.794V26.4938H343.344C341.834 26.4938 340.666 26.142 339.843 25.4382C339.019 24.7174 338.607 23.6961 338.607 22.3745V16.144H335.26V12.8486H338.607V9.37291H342.288V12.8486H347.644V16.144H342.288Z" fill="white"/>
<path d="M366.062 23.1211V26.4938H352.648V23.1211H357.514V16.2213H352.906V12.8486H361.196V23.1211H366.062ZM357.437 7.08154H361.222V10.7117H357.437V7.08154Z" fill="white"/>
<path d="M370.294 19.6712C370.294 18.2638 370.586 17.0194 371.17 15.9381C371.753 14.8396 372.568 13.99 373.615 13.3892C374.68 12.7713 375.89 12.4624 377.246 12.4624C378.619 12.4624 379.829 12.7713 380.876 13.3892C381.94 13.99 382.764 14.8396 383.347 15.9381C383.931 17.0194 384.223 18.2638 384.223 19.6712C384.223 21.0786 383.931 22.3316 383.347 23.4301C382.764 24.5114 381.94 25.361 380.876 25.9789C379.829 26.5796 378.619 26.88 377.246 26.88C375.89 26.88 374.68 26.5796 373.615 25.9789C372.568 25.361 371.753 24.5114 371.17 23.4301C370.586 22.3316 370.294 21.0786 370.294 19.6712ZM380.541 19.6712C380.541 18.4697 380.249 17.5343 379.666 16.8649C379.099 16.1784 378.293 15.8351 377.246 15.8351C376.216 15.8351 375.409 16.1784 374.825 16.8649C374.259 17.5343 373.976 18.4697 373.976 19.6712C373.976 20.8727 374.259 21.8167 374.825 22.5032C375.409 23.1726 376.216 23.5073 377.246 23.5073C378.275 23.5073 379.082 23.164 379.666 22.4775C380.249 21.7909 380.541 20.8555 380.541 19.6712Z" fill="white"/>
<path d="M388.841 12.8486H392.523V14.1359H392.574C393.124 13.5866 393.716 13.1747 394.351 12.9001C394.986 12.6083 395.707 12.4624 396.513 12.4624C397.406 12.4624 398.238 12.6769 399.011 13.106C399.783 13.518 400.41 14.1616 400.89 15.037C401.371 15.8952 401.611 16.9679 401.611 18.2552V26.4938H397.929V18.7444C397.929 17.869 397.706 17.1653 397.26 16.6332C396.814 16.1011 396.17 15.8351 395.329 15.8351C394.454 15.8351 393.767 16.0925 393.269 16.6075C392.772 17.1052 392.523 17.8003 392.523 18.6929V26.4938H388.841V12.8486Z" fill="white"/>
<path d="M66.1016 54.4715L71.0454 53.4416C71.343 55.2497 71.8923 56.52 72.6934 57.2525C73.5174 57.9849 74.7648 58.3511 76.4357 58.3511C77.6487 58.3511 78.5757 58.1566 79.2166 57.7675C79.8804 57.3555 80.2122 56.7604 80.2122 55.9822C80.2122 55.1582 79.8346 54.4601 79.0793 53.8879C78.3468 53.3157 77.0079 52.7206 75.0624 52.1026C72.2471 51.2328 70.2215 50.2257 68.9855 49.0813C67.7724 47.9369 67.1659 46.4606 67.1659 44.6524C67.1659 43.3249 67.5092 42.1576 68.1958 41.1505C68.9054 40.1205 69.8896 39.3194 71.1484 38.7472C72.4302 38.175 73.8836 37.8889 75.5087 37.8889C77.912 37.8889 79.9032 38.5183 81.4825 39.7772C83.0847 41.0132 84.149 42.7298 84.6755 44.9271L79.7316 46.0257C79.3883 44.7898 78.8733 43.8971 78.1866 43.3478C77.5229 42.7756 76.6302 42.4895 75.5087 42.4895C74.5016 42.4895 73.7005 42.6955 73.1054 43.1075C72.5103 43.5195 72.2128 44.0459 72.2128 44.6868C72.2128 45.259 72.5217 45.7625 73.1397 46.1974C73.7577 46.6323 74.925 47.1244 76.6416 47.6737C79.7545 48.6808 81.9746 49.8252 83.3022 51.1069C84.6526 52.3658 85.3278 54.0023 85.3278 56.0165C85.3278 57.4127 84.9616 58.6372 84.2291 59.6901C83.4967 60.7429 82.4553 61.5555 81.1049 62.1277C79.7545 62.677 78.1752 62.9517 76.367 62.9517C73.4602 62.9517 71.137 62.2192 69.3975 60.7544C67.658 59.2895 66.5593 57.1952 66.1016 54.4715Z" fill="white"/>
<path d="M100.688 48.635V55.9478C100.688 56.5658 100.825 57.0121 101.1 57.2868C101.397 57.5615 101.878 57.6988 102.542 57.6988H106.696V62.4367H102.095C100.081 62.4367 98.5249 61.9675 97.4262 61.029C96.3276 60.0677 95.7783 58.7059 95.7783 56.9435V48.635H91.315V44.2404H95.7783V39.6055H100.688V44.2404H107.829V48.635H100.688Z" fill="white"/>
<path d="M115.293 57.5615C115.293 55.8677 115.865 54.5516 117.009 53.6132C118.176 52.6748 120.111 51.9881 122.811 51.5533C124.23 51.3244 125.192 51.0726 125.695 50.7979C126.222 50.5004 126.485 50.1113 126.485 49.6306C126.485 49.0813 126.233 48.6464 125.73 48.326C125.226 48.0056 124.539 47.8453 123.67 47.8453C122.686 47.8453 121.827 48.1429 121.095 48.738C120.385 49.3331 119.927 50.1227 119.721 51.1069L115.155 50.077C115.384 48.841 115.899 47.7424 116.7 46.781C117.501 45.8197 118.508 45.0759 119.721 44.5494C120.935 44.0001 122.251 43.7254 123.67 43.7254C126.004 43.7254 127.87 44.3778 129.266 45.6824C130.662 46.987 131.36 48.7266 131.36 50.9009V62.4367H126.966V60.4111H126.897C126.371 61.2121 125.627 61.8416 124.665 62.2993C123.727 62.7342 122.663 62.9517 121.472 62.9517C120.282 62.9517 119.218 62.7228 118.279 62.265C117.341 61.8072 116.609 61.1664 116.082 60.3424C115.556 59.5184 115.293 58.5914 115.293 57.5615ZM126.691 55.6732V53.6132H126.622C126.416 53.9565 126.073 54.2312 125.592 54.4372C125.112 54.6432 124.356 54.8492 123.326 55.0552C122.045 55.3298 121.163 55.6274 120.683 55.9478C120.202 56.2454 119.962 56.6688 119.962 57.2181C119.962 57.7446 120.168 58.1451 120.58 58.4198C121.015 58.6944 121.633 58.8318 122.434 58.8318C123.166 58.8318 123.864 58.6944 124.528 58.4198C125.192 58.1222 125.718 57.7331 126.107 57.2525C126.496 56.7489 126.691 56.2225 126.691 55.6732Z" fill="white"/>
<path d="M148.437 48.635V55.9478C148.437 56.5658 148.574 57.0121 148.849 57.2868C149.146 57.5615 149.627 57.6988 150.291 57.6988H154.445V62.4367H149.844C147.83 62.4367 146.274 61.9675 145.175 61.029C144.077 60.0677 143.527 58.7059 143.527 56.9435V48.635H139.064V44.2404H143.527V39.6055H148.437V44.2404H155.578V48.635H148.437Z" fill="white"/>
<path d="M161.909 53.3729C161.909 51.4732 162.298 49.7909 163.076 48.326C163.854 46.8612 164.941 45.7282 166.338 44.9271C167.734 44.126 169.347 43.7254 171.178 43.7254C172.941 43.7254 174.509 44.1374 175.882 44.9614C177.278 45.7854 178.365 46.9413 179.144 48.429C179.922 49.9167 180.311 51.6105 180.311 53.5102V54.9522H166.818C166.887 56.0966 167.322 57.0236 168.123 57.7331C168.924 58.4427 169.977 58.7974 171.281 58.7974C172.197 58.7974 173.044 58.6029 173.822 58.2138C174.6 57.8018 175.447 57.1037 176.363 56.1195L179.418 59.2437C178.365 60.4111 177.152 61.3266 175.779 61.9904C174.406 62.6312 172.906 62.9517 171.281 62.9517C169.427 62.9517 167.791 62.5511 166.372 61.75C164.953 60.9489 163.854 59.8274 163.076 58.3854C162.298 56.9206 161.909 55.2497 161.909 53.3729ZM175.367 51.3816C175.275 50.3745 174.829 49.5391 174.028 48.8753C173.25 48.2116 172.3 47.8797 171.178 47.8797C170.011 47.8797 169.05 48.2001 168.294 48.841C167.539 49.4819 167.07 50.3287 166.887 51.3816H175.367Z" fill="white"/>
<path d="M204.014 57.9391V62.4367H186.126V57.9391H192.615V42.9015H186.47V38.4039H197.525V57.9391H204.014Z" fill="white"/>
<path d="M209.658 53.3729C209.658 51.4732 210.047 49.7909 210.825 48.326C211.603 46.8612 212.69 45.7282 214.087 44.9271C215.483 44.126 217.096 43.7254 218.927 43.7254C220.69 43.7254 222.258 44.1374 223.631 44.9614C225.027 45.7854 226.114 46.9413 226.893 48.429C227.671 49.9167 228.06 51.6105 228.06 53.5102V54.9522H214.567C214.636 56.0966 215.071 57.0236 215.872 57.7331C216.673 58.4427 217.726 58.7974 219.03 58.7974C219.946 58.7974 220.793 58.6029 221.571 58.2138C222.349 57.8018 223.196 57.1037 224.112 56.1195L227.167 59.2437C226.114 60.4111 224.901 61.3266 223.528 61.9904C222.155 62.6312 220.656 62.9517 219.03 62.9517C217.176 62.9517 215.54 62.5511 214.121 61.75C212.702 60.9489 211.603 59.8274 210.825 58.3854C210.047 56.9206 209.658 55.2497 209.658 53.3729ZM223.116 51.3816C223.024 50.3745 222.578 49.5391 221.777 48.8753C220.999 48.2116 220.049 47.8797 218.927 47.8797C217.76 47.8797 216.799 48.2001 216.044 48.841C215.288 49.4819 214.819 50.3287 214.636 51.3816H223.116Z" fill="white"/>
<path d="M234.013 56.4285L238.476 55.3985C238.797 56.5429 239.369 57.4241 240.193 58.0421C241.04 58.6372 242.104 58.9348 243.386 58.9348C244.53 58.9348 245.4 58.7974 245.995 58.5228C246.613 58.2481 246.922 57.859 246.922 57.3555C246.922 56.7833 246.613 56.3484 245.995 56.0508C245.377 55.7304 244.244 55.4099 242.596 55.0895C239.895 54.586 237.961 53.8879 236.794 52.9952C235.649 52.1026 235.077 50.8781 235.077 49.3216C235.077 48.223 235.398 47.2503 236.038 46.4034C236.679 45.5565 237.572 44.9042 238.716 44.4464C239.884 43.9658 241.211 43.7254 242.699 43.7254C244.736 43.7254 246.544 44.229 248.124 45.2361C249.703 46.2432 250.767 47.5821 251.316 49.253L247.094 50.6263C246.75 49.7108 246.189 49.0012 245.411 48.4977C244.656 47.9941 243.74 47.7424 242.665 47.7424C241.772 47.7424 241.062 47.8911 240.536 48.1887C240.01 48.4633 239.746 48.8524 239.746 49.356C239.746 49.8137 240.032 50.1914 240.605 50.489C241.2 50.7636 242.264 51.0383 243.798 51.3129C246.59 51.8394 248.581 52.5718 249.771 53.5102C250.985 54.4258 251.591 55.7075 251.591 57.3555C251.591 58.477 251.248 59.4612 250.561 60.3081C249.897 61.1549 248.936 61.8072 247.677 62.265C246.441 62.7228 245.011 62.9517 243.386 62.9517C240.914 62.9517 238.854 62.3795 237.206 61.235C235.581 60.0906 234.516 58.4884 234.013 56.4285Z" fill="white"/>
<path d="M257.887 56.4285L262.351 55.3985C262.671 56.5429 263.243 57.4241 264.067 58.0421C264.914 58.6372 265.978 58.9348 267.26 58.9348C268.405 58.9348 269.274 58.7974 269.869 58.5228C270.487 58.2481 270.796 57.859 270.796 57.3555C270.796 56.7833 270.487 56.3484 269.869 56.0508C269.251 55.7304 268.118 55.4099 266.47 55.0895C263.77 54.586 261.836 53.8879 260.668 52.9952C259.524 52.1026 258.952 50.8781 258.952 49.3216C258.952 48.223 259.272 47.2503 259.913 46.4034C260.554 45.5565 261.446 44.9042 262.591 44.4464C263.758 43.9658 265.086 43.7254 266.573 43.7254C268.611 43.7254 270.419 44.229 271.998 45.2361C273.577 46.2432 274.642 47.5821 275.191 49.253L270.968 50.6263C270.625 49.7108 270.064 49.0012 269.286 48.4977C268.53 47.9941 267.615 47.7424 266.539 47.7424C265.647 47.7424 264.937 47.8911 264.411 48.1887C263.884 48.4633 263.621 48.8524 263.621 49.356C263.621 49.8137 263.907 50.1914 264.479 50.489C265.074 50.7636 266.139 51.0383 267.672 51.3129C270.464 51.8394 272.456 52.5718 273.646 53.5102C274.859 54.4258 275.466 55.7075 275.466 57.3555C275.466 58.477 275.122 59.4612 274.436 60.3081C273.772 61.1549 272.811 61.8072 271.552 62.265C270.316 62.7228 268.885 62.9517 267.26 62.9517C264.788 62.9517 262.728 62.3795 261.08 61.235C259.455 60.0906 258.391 58.4884 257.887 56.4285Z" fill="white"/>
<path d="M304.641 50.4203C304.641 47.9255 305.064 45.7282 305.911 43.8284C306.781 41.9287 307.994 40.4639 309.55 39.4339C311.13 38.4039 312.949 37.8889 315.009 37.8889C316.634 37.8889 318.122 38.2551 319.472 38.9876C320.823 39.6971 321.921 40.7042 322.768 42.0088C323.638 43.3135 324.165 44.8012 324.348 46.472L319.369 47.296C319.118 45.7854 318.603 44.6181 317.824 43.7941C317.069 42.9701 316.131 42.5581 315.009 42.5581C313.384 42.5581 312.091 43.2562 311.13 44.6524C310.191 46.0486 309.722 47.9712 309.722 50.4203C309.722 52.8693 310.191 54.792 311.13 56.1882C312.091 57.5843 313.384 58.2824 315.009 58.2824C316.176 58.2824 317.149 57.8476 317.927 56.9778C318.706 56.108 319.209 54.8492 319.438 53.2012L324.416 54.0252C324.21 55.8105 323.684 57.3783 322.837 58.7288C321.99 60.0792 320.88 61.1206 319.507 61.853C318.156 62.5854 316.657 62.9517 315.009 62.9517C312.949 62.9517 311.13 62.4367 309.55 61.4067C307.994 60.3767 306.781 58.9119 305.911 57.0121C305.064 55.1124 304.641 52.9151 304.641 50.4203Z" fill="white"/>
<path d="M329.03 53.3386C329.03 51.4617 329.419 49.8023 330.198 48.3603C330.976 46.8955 332.063 45.7625 333.459 44.9614C334.878 44.1374 336.492 43.7254 338.3 43.7254C340.131 43.7254 341.745 44.1374 343.141 44.9614C344.56 45.7625 345.659 46.8955 346.437 48.3603C347.215 49.8023 347.604 51.4617 347.604 53.3386C347.604 55.2154 347.215 56.8862 346.437 58.3511C345.659 59.7931 344.56 60.926 343.141 61.75C341.745 62.5511 340.131 62.9517 338.3 62.9517C336.492 62.9517 334.878 62.5511 333.459 61.75C332.063 60.926 330.976 59.7931 330.198 58.3511C329.419 56.8862 329.03 55.2154 329.03 53.3386ZM342.695 53.3386C342.695 51.7364 342.305 50.489 341.527 49.5963C340.772 48.6808 339.696 48.223 338.3 48.223C336.927 48.223 335.851 48.6808 335.073 49.5963C334.317 50.489 333.94 51.7364 333.94 53.3386C333.94 54.9407 334.317 56.1996 335.073 57.1151C335.851 58.0078 336.927 58.4541 338.3 58.4541C339.673 58.4541 340.749 57.9963 341.527 57.0808C342.305 56.1653 342.695 54.9178 342.695 53.3386Z" fill="white"/>
<path d="M353.763 44.2404H358.673V45.9571H358.741C359.474 45.2246 360.263 44.6753 361.11 44.3091C361.957 43.92 362.918 43.7254 363.994 43.7254C365.184 43.7254 366.294 44.0116 367.324 44.5838C368.354 45.1331 369.19 45.9914 369.831 47.1587C370.472 48.3031 370.792 49.7336 370.792 51.4503V62.4367H365.882V52.1026C365.882 50.9353 365.585 49.9969 364.99 49.2873C364.395 48.5778 363.536 48.223 362.415 48.223C361.248 48.223 360.332 48.5663 359.668 49.253C359.005 49.9167 358.673 50.8437 358.673 52.0339V62.4367H353.763V44.2404Z" fill="white"/>
<path d="M377.26 56.4285L381.723 55.3985C382.044 56.5429 382.616 57.4241 383.44 58.0421C384.287 58.6372 385.351 58.9348 386.633 58.9348C387.777 58.9348 388.647 58.7974 389.242 58.5228C389.86 58.2481 390.169 57.859 390.169 57.3555C390.169 56.7833 389.86 56.3484 389.242 56.0508C388.624 55.7304 387.491 55.4099 385.843 55.0895C383.142 54.586 381.208 53.8879 380.041 52.9952C378.896 52.1026 378.324 50.8781 378.324 49.3216C378.324 48.223 378.645 47.2503 379.286 46.4034C379.926 45.5565 380.819 44.9042 381.963 44.4464C383.131 43.9658 384.458 43.7254 385.946 43.7254C387.983 43.7254 389.791 44.229 391.371 45.2361C392.95 46.2432 394.014 47.5821 394.564 49.253L390.341 50.6263C389.997 49.7108 389.437 49.0012 388.658 48.4977C387.903 47.9941 386.987 47.7424 385.912 47.7424C385.019 47.7424 384.31 47.8911 383.783 48.1887C383.257 48.4633 382.993 48.8524 382.993 49.356C382.993 49.8137 383.28 50.1914 383.852 50.489C384.447 50.7636 385.511 51.0383 387.045 51.3129C389.837 51.8394 391.828 52.5718 393.019 53.5102C394.232 54.4258 394.838 55.7075 394.838 57.3555C394.838 58.477 394.495 59.4612 393.808 60.3081C393.144 61.1549 392.183 61.8072 390.924 62.265C389.688 62.7228 388.258 62.9517 386.633 62.9517C384.161 62.9517 382.101 62.3795 380.453 61.235C378.828 60.0906 377.763 58.4884 377.26 56.4285Z" fill="white"/>
<path d="M400.654 53.3729C400.654 51.4732 401.043 49.7909 401.821 48.326C402.599 46.8612 403.687 45.7282 405.083 44.9271C406.479 44.126 408.093 43.7254 409.924 43.7254C411.686 43.7254 413.254 44.1374 414.627 44.9614C416.023 45.7854 417.111 46.9413 417.889 48.429C418.667 49.9167 419.056 51.6105 419.056 53.5102V54.9522H405.563C405.632 56.0966 406.067 57.0236 406.868 57.7331C407.669 58.4427 408.722 58.7974 410.027 58.7974C410.942 58.7974 411.789 58.6029 412.567 58.2138C413.345 57.8018 414.192 57.1037 415.108 56.1195L418.163 59.2437C417.111 60.4111 415.897 61.3266 414.524 61.9904C413.151 62.6312 411.652 62.9517 410.027 62.9517C408.173 62.9517 406.536 62.5511 405.117 61.75C403.698 60.9489 402.599 59.8274 401.821 58.3854C401.043 56.9206 400.654 55.2497 400.654 53.3729ZM414.112 51.3816C414.021 50.3745 413.574 49.5391 412.773 48.8753C411.995 48.2116 411.045 47.8797 409.924 47.8797C408.756 47.8797 407.795 48.2001 407.04 48.841C406.284 49.4819 405.815 50.3287 405.632 51.3816H414.112Z" fill="white"/>
<path d="M425.387 44.2404H430.296V45.9571H430.365C431.097 45.2246 431.887 44.6753 432.734 44.3091C433.581 43.92 434.542 43.7254 435.618 43.7254C436.808 43.7254 437.918 44.0116 438.948 44.5838C439.978 45.1331 440.813 45.9914 441.454 47.1587C442.095 48.3031 442.416 49.7336 442.416 51.4503V62.4367H437.506V52.1026C437.506 50.9353 437.208 49.9969 436.613 49.2873C436.018 48.5778 435.16 48.223 434.038 48.223C432.871 48.223 431.956 48.5663 431.292 49.253C430.628 49.9167 430.296 50.8437 430.296 52.0339V62.4367H425.387V44.2404Z" fill="white"/>
<path d="M448.883 56.4285L453.347 55.3985C453.667 56.5429 454.239 57.4241 455.063 58.0421C455.91 58.6372 456.975 58.9348 458.256 58.9348C459.401 58.9348 460.27 58.7974 460.866 58.5228C461.484 58.2481 461.793 57.859 461.793 57.3555C461.793 56.7833 461.484 56.3484 460.866 56.0508C460.248 55.7304 459.115 55.4099 457.467 55.0895C454.766 54.586 452.832 53.8879 451.664 52.9952C450.52 52.1026 449.948 50.8781 449.948 49.3216C449.948 48.223 450.268 47.2503 450.909 46.4034C451.55 45.5565 452.443 44.9042 453.587 44.4464C454.754 43.9658 456.082 43.7254 457.57 43.7254C459.607 43.7254 461.415 44.229 462.994 45.2361C464.573 46.2432 465.638 47.5821 466.187 49.253L461.964 50.6263C461.621 49.7108 461.06 49.0012 460.282 48.4977C459.527 47.9941 458.611 47.7424 457.535 47.7424C456.643 47.7424 455.933 47.8911 455.407 48.1887C454.88 48.4633 454.617 48.8524 454.617 49.356C454.617 49.8137 454.903 50.1914 455.475 50.489C456.07 50.7636 457.135 51.0383 458.668 51.3129C461.461 51.8394 463.452 52.5718 464.642 53.5102C465.855 54.4258 466.462 55.7075 466.462 57.3555C466.462 58.477 466.118 59.4612 465.432 60.3081C464.768 61.1549 463.807 61.8072 462.548 62.265C461.312 62.7228 459.881 62.9517 458.256 62.9517C455.784 62.9517 453.724 62.3795 452.076 61.235C450.451 60.0906 449.387 58.4884 448.883 56.4285Z" fill="white"/>
<path d="M473.307 56.2568V44.2404H478.217V55.1238C478.217 57.344 479.316 58.4541 481.513 58.4541C482.497 58.4541 483.275 58.1566 483.847 57.5615C484.443 56.9435 484.74 56.1309 484.74 55.1238V44.2404H489.65V62.4367H484.946V60.823H484.877C484.374 61.4639 483.676 61.9789 482.783 62.368C481.913 62.7571 480.998 62.9517 480.036 62.9517C477.885 62.9517 476.226 62.368 475.058 61.2007C473.891 60.0105 473.307 58.3625 473.307 56.2568Z" fill="white"/>
<path d="M496.633 56.4285L501.096 55.3985C501.416 56.5429 501.988 57.4241 502.812 58.0421C503.659 58.6372 504.724 58.9348 506.005 58.9348C507.15 58.9348 508.019 58.7974 508.615 58.5228C509.233 58.2481 509.542 57.859 509.542 57.3555C509.542 56.7833 509.233 56.3484 508.615 56.0508C507.997 55.7304 506.864 55.4099 505.216 55.0895C502.515 54.586 500.581 53.8879 499.413 52.9952C498.269 52.1026 497.697 50.8781 497.697 49.3216C497.697 48.223 498.017 47.2503 498.658 46.4034C499.299 45.5565 500.192 44.9042 501.336 44.4464C502.503 43.9658 503.831 43.7254 505.319 43.7254C507.356 43.7254 509.164 44.229 510.743 45.2361C512.322 46.2432 513.387 47.5821 513.936 49.253L509.713 50.6263C509.37 49.7108 508.809 49.0012 508.031 48.4977C507.276 47.9941 506.36 47.7424 505.284 47.7424C504.392 47.7424 503.682 47.8911 503.156 48.1887C502.629 48.4633 502.366 48.8524 502.366 49.356C502.366 49.8137 502.652 50.1914 503.224 50.489C503.819 50.7636 504.884 51.0383 506.417 51.3129C509.21 51.8394 511.201 52.5718 512.391 53.5102C513.604 54.4258 514.211 55.7075 514.211 57.3555C514.211 58.477 513.867 59.4612 513.181 60.3081C512.517 61.1549 511.556 61.8072 510.297 62.265C509.061 62.7228 507.63 62.9517 506.005 62.9517C503.533 62.9517 501.473 62.3795 499.825 61.235C498.2 60.0906 497.136 58.4884 496.633 56.4285Z" fill="white"/>
</svg>
